<svg width="14" height="16" viewBox="0 0 14 16" fill="none" xmlns="http://www.w3.org/2000/svg">
<g id="XMLID_197_">
<path id="XMLID_221_" d="M8.66953 15.9981C9.20451 15.9981 9.67103 15.5315 9.67103 14.9966V12.6576H10.3397C10.741 12.6576 11.0085 12.3901 11.0085 11.9889V5.30859H2.99023V11.989C2.99023 12.3902 3.25772 12.6577 3.65895 12.6577H4.32772V14.9966C4.32772 15.5316 4.79414 15.9981 5.32922 15.9981C5.86413 15.9981 6.33061 15.5316 6.33061 14.9966V12.6577H7.66809V14.9966C7.66804 15.5315 8.13456 15.9981 8.66953 15.9981Z" fill="white"/>
<path id="XMLID_222_" d="M12.6792 11.989C13.2142 11.989 13.6806 11.5225 13.6806 10.9875V6.30967C13.6806 5.77752 13.2142 5.30859 12.6792 5.30859C12.1442 5.30859 11.6777 5.77752 11.6777 6.30967V10.9875C11.6777 11.5224 12.1442 11.989 12.6792 11.989Z" fill="white"/>
<path id="XMLID_223_" d="M1.31975 11.989C1.85478 11.989 2.32125 11.5225 2.32125 10.9875V6.30967C2.32125 5.77752 1.85483 5.30859 1.31975 5.30859C0.784778 5.30859 0.318359 5.77752 0.318359 6.30967V10.9875C0.318359 11.5224 0.784778 11.989 1.31975 11.989Z" fill="white"/>
<path id="XMLID_224_" d="M10.2059 0.100908C10.0723 -0.033636 9.87322 -0.033636 9.73953 0.100908L8.84263 0.994825L8.80125 1.03615C8.26943 0.769837 7.67316 0.636841 7.00914 0.63556C7.00589 0.63556 7.00269 0.635453 6.99943 0.635453H6.99932C6.99596 0.635453 6.99286 0.63556 6.9895 0.63556C6.32553 0.636841 5.72927 0.769837 5.1975 1.03615L5.15602 0.994825L4.25916 0.100908C4.12537 -0.033636 3.92644 -0.033636 3.79275 0.100908C3.65895 0.234704 3.65895 0.433264 3.79275 0.566953L4.66034 1.43471C4.38079 1.62136 4.12729 1.84977 3.90684 2.11101C3.37908 2.73658 3.04245 3.55073 2.99616 4.43285C2.99573 4.44203 2.99483 4.45111 2.9944 4.46029C2.99157 4.52036 2.99023 4.58074 2.99023 4.64134H11.0085C11.0085 4.58074 11.007 4.52036 11.0043 4.46029C11.0039 4.45111 11.003 4.44203 11.0024 4.43285C10.9562 3.55073 10.6195 2.73653 10.0917 2.11106C9.87141 1.84982 9.6178 1.62142 9.33825 1.43476L10.2059 0.567007C10.3397 0.433264 10.3397 0.234704 10.2059 0.100908ZM5.32793 3.47374C5.05126 3.47374 4.82697 3.24945 4.82697 2.97278C4.82697 2.69611 5.05126 2.47182 5.32793 2.47182C5.6046 2.47182 5.8289 2.69611 5.8289 2.97278C5.8289 3.24945 5.6046 3.47374 5.32793 3.47374ZM8.67076 3.47374C8.39409 3.47374 8.1698 3.24945 8.1698 2.97278C8.1698 2.69611 8.39409 2.47182 8.67076 2.47182C8.94743 2.47182 9.17172 2.69611 9.17172 2.97278C9.17172 3.24945 8.94743 3.47374 8.67076 3.47374Z" fill="white"/>
</g>
</svg>
