<svg width="16" height="16" viewBox="0 0 16 16" fill="none" xmlns="http://www.w3.org/2000/svg">
<g id="Group">
<path id="Vector" d="M14.5938 1.3125H14.0938V0.46875C14.0938 0.209875 13.8839 0 13.625 0C13.3661 0 13.1562 0.209875 13.1562 0.46875V1.3125H10.3438V0.46875C10.3438 0.209875 10.1339 0 9.875 0C9.61613 0 9.40625 0.209875 9.40625 0.46875V1.3125H6.59375V0.46875C6.59375 0.209875 6.38387 0 6.125 0C5.86613 0 5.65625 0.209875 5.65625 0.46875V1.3125H2.84375V0.46875C2.84375 0.209875 2.63387 0 2.375 0C2.11613 0 1.90625 0.209875 1.90625 0.46875V1.3125H1.40625C0.630844 1.3125 0 1.94334 0 2.71875V14.5938C0 15.3692 0.630844 16 1.40625 16H14.5938C15.3692 16 16 15.3692 16 14.5938V2.71875C16 1.94334 15.3692 1.3125 14.5938 1.3125ZM15.0625 14.5938C15.0625 14.8522 14.8522 15.0625 14.5938 15.0625H1.40625C1.14778 15.0625 0.9375 14.8522 0.9375 14.5938V6H15.0625V14.5938ZM15.0625 5.0625H0.9375V2.71875C0.9375 2.46028 1.14778 2.25 1.40625 2.25H1.90625V3.09375C1.90625 3.35262 2.11613 3.5625 2.375 3.5625C2.63387 3.5625 2.84375 3.35262 2.84375 3.09375V2.25H5.65625V3.09375C5.65625 3.35262 5.86613 3.5625 6.125 3.5625C6.38387 3.5625 6.59375 3.35262 6.59375 3.09375V2.25H9.40625V3.09375C9.40625 3.35262 9.61613 3.5625 9.875 3.5625C10.1339 3.5625 10.3438 3.35262 10.3438 3.09375V2.25H13.1562V3.09375C13.1562 3.35262 13.3661 3.5625 13.625 3.5625C13.8839 3.5625 14.0938 3.35262 14.0938 3.09375V2.25H14.5938C14.8522 2.25 15.0625 2.46028 15.0625 2.71875V5.0625Z" fill="#222222"/>
<path id="Vector_2" d="M6.00391 12.25C5.69381 12.25 5.42772 12.019 5.38497 11.7126C5.38094 11.6839 5.37891 11.6544 5.37891 11.625C5.37891 11.3661 5.16903 11.1562 4.91016 11.1562C4.65128 11.1562 4.44141 11.3661 4.44141 11.625C4.44141 11.6977 4.4465 11.7708 4.45647 11.8423C4.56347 12.6092 5.22872 13.1875 6.00391 13.1875C6.86547 13.1875 7.56641 12.4865 7.56641 11.625C7.56641 11.1994 7.39522 10.8133 7.11834 10.5312C7.39522 10.2492 7.56641 9.86303 7.56641 9.4375C7.56641 8.57594 6.86547 7.875 6.00391 7.875C5.25897 7.875 4.61416 8.40497 4.47072 9.13513C4.42081 9.38916 4.58628 9.63553 4.84031 9.68544C5.09434 9.73534 5.34072 9.56984 5.39062 9.31584C5.44791 9.02419 5.70584 8.8125 6.00391 8.8125C6.34853 8.8125 6.62891 9.09288 6.62891 9.4375C6.62891 9.78209 6.34853 10.0625 6.00391 10.0625C5.74503 10.0625 5.53516 10.2723 5.53516 10.5312C5.53516 10.7901 5.74503 11 6.00391 11C6.34853 11 6.62891 11.2803 6.62891 11.625C6.62891 11.9696 6.34853 12.25 6.00391 12.25Z" fill="#222222"/>
<path id="Vector_3" d="M9.87569 13.1875C10.8044 13.1875 11.56 12.4319 11.56 11.5032V9.55931C11.56 8.63056 10.8044 7.875 9.87569 7.875C8.94697 7.875 8.19141 8.63056 8.19141 9.55928V11.5032C8.19141 12.4319 8.94697 13.1875 9.87569 13.1875ZM9.12891 9.55928C9.12891 9.1475 9.46391 8.8125 9.87569 8.8125C10.2875 8.8125 10.6225 9.1475 10.6225 9.55928V11.5032C10.6225 11.915 10.2875 12.25 9.87569 12.25C9.46391 12.25 9.12891 11.915 9.12891 11.5032V9.55928Z" fill="#222222"/>
</g>
</svg>
