<svg width="16" height="16" viewBox="0 0 16 16" fill="none" xmlns="http://www.w3.org/2000/svg">
<g id="contract">
<path id="Vector" d="M12.7417 15.1129H3.73277C3.23276 15.1092 2.75409 14.9098 2.39943 14.5573C2.22369 14.3825 2.08416 14.1748 1.98883 13.946C1.8935 13.7172 1.84424 13.4718 1.84388 13.224V4.12619C1.84137 3.9386 1.87623 3.75239 1.94643 3.57841C2.01663 3.40443 2.12077 3.24617 2.25277 3.11286L4.0661 1.30841C4.19815 1.17535 4.35536 1.06988 4.52857 0.998155C4.70177 0.92643 4.88752 0.889881 5.07499 0.890636H12.7417C13.1189 0.890636 13.4806 1.04048 13.7473 1.3072C14.014 1.57391 14.1639 1.93566 14.1639 2.31286V13.6906C14.1639 14.0678 14.014 14.4296 13.7473 14.6963C13.4806 14.963 13.1189 15.1129 12.7417 15.1129ZM5.07499 1.8373C4.9501 1.83768 4.83036 1.88717 4.74165 1.97508L2.92388 3.79286C2.83636 3.88183 2.78695 4.00139 2.7861 4.12619V13.2151C2.78599 13.3399 2.81068 13.4635 2.85875 13.5787C2.90681 13.6939 2.9773 13.7985 3.0661 13.8862C3.24488 14.0627 3.48598 14.1617 3.73721 14.1617H12.7417C12.8041 14.1617 12.8659 14.1494 12.9236 14.1255C12.9813 14.1016 13.0338 14.0666 13.0779 14.0225C13.1221 13.9783 13.1571 13.9259 13.181 13.8682C13.2049 13.8105 13.2172 13.7486 13.2172 13.6862V2.31286C13.2172 2.18673 13.1671 2.06577 13.0779 1.97659C12.9887 1.88741 12.8678 1.8373 12.7417 1.8373H5.07499Z" fill="#222222"/>
<path id="Vector_2" d="M4.67969 4.67969H11.3152V5.62635H4.67969V4.67969Z" fill="#222222"/>
<path id="Vector_3" d="M4.67969 6.57812H11.3152V7.52479H4.67969V6.57812Z" fill="#222222"/>
<path id="Vector_4" d="M4.67969 8.47656H7.99969V9.42323H4.67969V8.47656Z" fill="#222222"/>
<path id="Vector_5" d="M4.67969 11.3203H9.42191V12.267H4.67969V11.3203Z" fill="#222222"/>
<path id="Vector_6" d="M10.3691 11.3203H11.3158V12.267H10.3691V11.3203Z" fill="#222222"/>
</g>
</svg>
