<svg width="40" height="40" viewBox="0 0 40 40" fill="none" xmlns="http://www.w3.org/2000/svg">
<g id="page" opacity="0.15">
<path id="Vector" d="M31.4894 2.22266H12.3449C10.6779 2.22559 9.08 2.88911 7.90124 4.06787C6.72248 5.24663 6.05896 6.84453 6.05602 8.51154V10.0004C4.9603 10.2654 3.98591 10.892 3.29033 11.7792C2.59475 12.6663 2.21861 13.762 2.22269 14.8893V32.7671C2.22562 34.0952 2.75452 35.3681 3.69365 36.3072C4.63278 37.2464 5.90567 37.7753 7.2338 37.7782H25.1116C26.2389 37.7823 27.3346 37.4062 28.2217 36.7106C29.1089 36.015 29.7355 35.0406 30.0005 33.9449H31.5227C33.1839 33.9332 34.7733 33.2658 35.9448 32.088C37.1164 30.9101 37.7754 29.3173 37.7782 27.656V8.51154C37.7753 6.84453 37.1118 5.24663 35.933 4.06787C34.7543 2.88911 33.1564 2.22559 31.4894 2.22266ZM27.7782 32.7671C27.7782 33.4684 27.4996 34.1411 27.0037 34.637C26.5078 35.1329 25.8351 35.4115 25.1338 35.4115H7.2338C6.53245 35.4115 5.85982 35.1329 5.3639 34.637C4.86797 34.1411 4.58936 33.4684 4.58936 32.7671V14.8893C4.58642 14.5402 4.65266 14.1939 4.78424 13.8705C4.91582 13.5471 5.11014 13.253 5.35599 13.005C5.60185 12.7571 5.89436 12.5603 6.21666 12.4261C6.53895 12.2918 6.88465 12.2226 7.2338 12.2227H25.1116C25.4626 12.2197 25.8107 12.2866 26.1356 12.4196C26.4604 12.5526 26.7556 12.7489 27.0038 12.9971C27.252 13.2453 27.4483 13.5405 27.5813 13.8653C27.7143 14.1902 27.7812 14.5383 27.7782 14.8893V32.7671ZM35.4338 27.6671C35.4338 28.7073 35.0206 29.705 34.285 30.4405C33.5494 31.1761 32.5518 31.5893 31.5116 31.5893H30.1227V14.9227C30.1256 14.2622 29.9982 13.6076 29.7478 12.9965C29.4975 12.3853 29.129 11.8295 28.6635 11.361C28.198 10.8924 27.6447 10.5202 27.0352 10.2658C26.4257 10.0114 25.772 9.87967 25.1116 9.87821H8.44491V8.51154C8.44491 7.47131 8.85814 6.47367 9.5937 5.73812C10.3293 5.00256 11.3269 4.58932 12.3671 4.58932H31.4894C32.5296 4.58932 33.5272 5.00256 34.2628 5.73812C34.9983 6.47367 35.4116 7.47131 35.4116 8.51154L35.4338 27.6671Z" fill="#5BBB7B"/>
</g>
</svg>
