<svg width="58" height="52" viewBox="0 0 58 52" fill="none" xmlns="http://www.w3.org/2000/svg">
<circle cx="38" cy="32" r="20" fill="#FBF7ED"/>
<g clip-path="url(#clip0_1356_92290)">
<path d="M20 0C8.97199 0 0 8.97192 0 20C0 31.0281 8.97199 40 20 40C31.028 40 40 31.028 40 20C40 8.97199 31.0281 0 20 0ZM20 37.6567C10.264 37.6567 2.34321 29.736 2.34321 20C2.34321 10.264 10.264 2.34321 20 2.34321C29.736 2.34321 37.6568 10.264 37.6568 20C37.6568 29.736 29.736 37.6567 20 37.6567Z" fill="#1F4B3F"/>
<path d="M19.9997 4.6875C19.3527 4.6875 18.8281 5.21207 18.8281 5.8591C18.8281 6.50614 19.3527 7.03071 19.9997 7.03071C27.1516 7.03071 32.9701 12.8491 32.9701 20.0011C32.9701 20.6481 33.4947 21.1727 34.1417 21.1727C34.7887 21.1727 35.3133 20.6481 35.3133 20.0011C35.3133 11.5571 28.4437 4.6875 19.9997 4.6875Z" fill="#1F4B3F"/>
<path d="M6.88618 19.9208C6.88774 19.2733 6.36443 18.7477 5.7177 18.7461C5.71692 18.7461 5.71536 18.7461 5.71458 18.7461C5.06863 18.7461 4.54453 19.2686 4.54297 19.9146C4.54141 20.5621 5.06473 21.0877 5.71145 21.0893C6.35896 21.0909 6.88462 20.5675 6.88618 19.9208Z" fill="#1F4B3F"/>
<path d="M6.77331 24.1523C6.62412 24.1523 6.47338 24.1805 6.32732 24.2407C5.72902 24.4874 5.44393 25.1725 5.68996 25.7708C5.93678 26.3682 6.62178 26.6541 7.22008 26.4073C7.81838 26.1605 8.10347 25.4763 7.85665 24.878C7.67068 24.4257 7.23328 24.1523 6.77331 24.1523Z" fill="#1F4B3F"/>
<path d="M9.82591 28.7383C9.52754 28.7383 9.22917 28.8515 9.00032 29.0781C8.54105 29.5343 8.5387 30.2763 8.99485 30.7356C8.99485 30.7356 8.99485 30.7356 8.99485 30.7348C9.45021 31.194 10.1922 31.1972 10.6515 30.741C11.1108 30.2857 11.1131 29.5436 10.6577 29.0844C10.4281 28.8531 10.1274 28.7383 9.82591 28.7383Z" fill="#1F4B3F"/>
<path d="M14.8447 31.9164C14.6963 31.8539 14.5424 31.8242 14.3909 31.8242C13.934 31.8242 13.4989 32.0937 13.3107 32.5419C13.06 33.1379 13.3396 33.8253 13.9363 34.076C14.5331 34.3268 15.2196 34.0471 15.4703 33.4503C15.7211 32.8537 15.4414 32.1671 14.8447 31.9164Z" fill="#1F4B3F"/>
<path d="M7.28493 13.4212C6.68897 13.1689 6.00163 13.4469 5.74934 14.043C5.49706 14.6389 5.77512 15.3263 6.37108 15.5793C6.52026 15.6426 6.67491 15.6722 6.82722 15.6722C7.28415 15.6722 7.71764 15.4036 7.90666 14.9576C8.15894 14.3616 7.88088 13.6735 7.28493 13.4212Z" fill="#1F4B3F"/>
<path d="M9.10004 9.11169C8.63999 9.56619 8.6353 10.3082 9.08989 10.7683C9.31874 11.0003 9.62101 11.1167 9.92329 11.1167C10.2209 11.1167 10.5185 11.0042 10.7465 10.7785C11.2066 10.3239 11.2113 9.58189 10.7567 9.12184C10.3021 8.66093 9.56009 8.65711 9.10004 9.11169Z" fill="#1F4B3F"/>
<path d="M14.0739 5.81811C13.4748 6.06337 13.1882 6.74751 13.4334 7.34588C13.6193 7.79969 14.0567 8.07462 14.5183 8.07462C14.6659 8.07462 14.8159 8.0465 14.9612 7.98714C15.5603 7.74189 15.8469 7.05767 15.6017 6.45859C15.3572 5.86029 14.673 5.57278 14.0739 5.81811Z" fill="#1F4B3F"/>
<path d="M33.5283 24.2407C33.3823 24.1805 33.2315 24.1523 33.0823 24.1523C32.6224 24.1523 32.1849 24.4257 31.999 24.878C31.7522 25.4763 32.0373 26.1605 32.6356 26.4073C33.2338 26.6541 33.9189 26.3682 34.1657 25.7708C34.4117 25.1725 34.1266 24.4874 33.5283 24.2407Z" fill="#1F4B3F"/>
<path d="M30.0311 28.7383C29.7296 28.7383 29.4289 28.8531 29.1992 29.0844C28.7439 29.5436 28.7462 30.2857 29.2055 30.741C29.6648 31.1972 30.4068 31.194 30.8621 30.7348V30.7356C31.3183 30.2763 31.3159 29.5343 30.8567 29.0781C30.6278 28.8515 30.3295 28.7383 30.0311 28.7383Z" fill="#1F4B3F"/>
<path d="M25.4663 31.8242C25.3148 31.8242 25.1609 31.8539 25.0125 31.9164C24.4158 32.1671 24.1361 32.8537 24.3869 33.4504C24.6376 34.0472 25.3241 34.3268 25.9209 34.0761C26.5176 33.8254 26.7972 33.138 26.5465 32.542C26.3584 32.0937 25.9232 31.8242 25.4663 31.8242Z" fill="#1F4B3F"/>
<path d="M20.0693 32.9219C20.0677 32.9219 20.0662 32.9219 20.0638 32.9219C19.4171 32.925 18.8946 33.4522 18.8985 34.0989C18.9016 34.7456 19.4288 35.2682 20.0755 35.2651C20.7223 35.262 21.2448 34.7347 21.2409 34.0872C21.2386 33.442 20.7145 32.9219 20.0693 32.9219Z" fill="#1F4B3F"/>
<path d="M29.4304 21.1252C30.0774 21.1252 30.602 20.6006 30.602 19.9536C30.602 19.3065 30.0774 18.782 29.4304 18.782H23.2441C22.8905 17.785 22.0994 16.9938 21.1024 16.6403V10.4646C21.1024 9.81753 20.5779 9.29297 19.9308 9.29297C19.2838 9.29297 18.7592 9.81753 18.7592 10.4646V16.6403C17.3956 17.124 16.416 18.4263 16.416 19.9536C16.416 21.8917 17.9928 23.4685 19.9308 23.4685C21.4582 23.4685 22.7605 22.4889 23.2441 21.1252H29.4304V21.1252ZM19.9308 21.1252C19.2848 21.1252 18.7592 20.5996 18.7592 19.9536C18.7592 19.3075 19.2848 18.782 19.9308 18.782C20.5769 18.782 21.1024 19.3075 21.1024 19.9536C21.1024 20.5996 20.5769 21.1252 19.9308 21.1252Z" fill="#1F4B3F"/>
</g>
<defs>
<clipPath id="clip0_1356_92290">
<rect width="40" height="40" fill="white"/>
</clipPath>
</defs>
</svg>
