<svg width="58" height="52" viewBox="0 0 58 52" fill="none" xmlns="http://www.w3.org/2000/svg">
<circle cx="38" cy="32" r="20" fill="#FBF7ED"/>
<g clip-path="url(#clip0_1356_92332)">
<path d="M34.1406 16.6266H28.3276C27.6804 16.6266 27.1558 17.1515 27.1558 17.7985C27.1558 17.9514 27.186 18.0969 27.2391 18.2309C27.4112 18.6639 27.8333 18.9703 28.3276 18.9703H34.1406C36.0791 18.9703 37.6562 20.5475 37.6562 22.486V34.1406C37.6562 36.0791 36.0791 37.6562 34.1406 37.6562H20.8926C18.9542 37.6562 17.377 36.0791 17.377 34.1406V21.2869C17.377 20.5685 17.9614 19.9841 18.6798 19.9841H21.3202C23.331 19.9841 24.9667 18.3484 24.9667 16.3376V5.85938C24.9667 2.62848 22.3383 0 19.1074 0H5.85938C2.62848 0 0 2.62848 0 5.85938V18.3261C0 21.557 2.62848 24.1855 5.85938 24.1855H15.0333V34.1406C15.0333 37.3715 17.6617 40 20.8926 40H34.1406C37.3715 40 40 37.3715 40 34.1406V22.486C40 19.2554 37.3715 16.6266 34.1406 16.6266ZM15.0333 21.8417H5.85938C3.9209 21.8417 2.34375 20.2646 2.34375 18.3261V5.85938C2.34375 3.9209 3.9209 2.34375 5.85938 2.34375H19.1074C21.0458 2.34375 22.623 3.9209 22.623 5.85938V16.3376C22.623 17.056 22.0386 17.6404 21.3202 17.6404H18.6798C16.669 17.6404 15.0333 19.2761 15.0333 21.2869V21.8417Z" fill="#1F4B3F"/>
<path d="M22.1641 34.3589C25.9312 34.3589 28.9957 31.2944 28.9957 27.5276V27.1739H30.0638V33.1871C30.0638 33.8344 30.5884 34.3589 31.2357 34.3589C31.883 34.3589 32.4076 33.8344 32.4076 33.1871V27.1739H32.8712C33.5184 27.1739 34.043 26.6493 34.043 26.002C34.043 25.355 33.5184 24.8301 32.8712 24.8301H32.4076V21.8477C32.4076 21.2004 31.883 20.6758 31.2357 20.6758C30.5884 20.6758 30.0638 21.2004 30.0638 21.8477V24.8301H24.452C23.8047 24.8301 23.2801 25.355 23.2801 26.002C23.2801 26.6493 23.8047 27.1739 24.452 27.1739H26.652V27.5276C26.652 30.002 24.6387 32.0152 22.1641 32.0152C21.5168 32.0152 20.9922 32.5401 20.9922 33.1871C20.9922 33.8344 21.5168 34.3589 22.1641 34.3589Z" fill="#1F4B3F"/>
<path d="M17.1264 14.736L13.5617 6.33881C13.3779 5.90607 12.9531 5.625 12.4829 5.625C12.0129 5.625 11.5881 5.90607 11.4044 6.33881L7.83961 14.736C7.58662 15.3317 7.86463 16.0196 8.46033 16.2726C8.60957 16.3361 8.7649 16.366 8.91749 16.366C9.37373 16.366 9.80738 16.098 9.99689 15.6519L10.6887 14.0219H14.2773L14.9691 15.6519C15.2221 16.2476 15.91 16.5256 16.5057 16.2726C17.1014 16.0196 17.3794 15.3317 17.1264 14.736ZM11.6839 11.6782L12.4829 9.79553L13.2821 11.6782H11.6839Z" fill="#1F4B3F"/>
</g>
<defs>
<clipPath id="clip0_1356_92332">
<rect width="40" height="40" fill="white"/>
</clipPath>
</defs>
</svg>
