<svg width="58" height="52" viewBox="0 0 58 52" fill="none" xmlns="http://www.w3.org/2000/svg">
<circle cx="38" cy="32" r="20" fill="#FBF7ED"/>
<path d="M36.6805 24.7656C37.2383 24.143 37.5781 23.3211 37.5781 22.4219C37.5781 20.4836 36.0008 18.9062 34.0625 18.9062H27.2391C27.9148 16.8555 28.2031 14.1344 28.2031 12.968V11.7969C28.2031 9.2125 26.1 7.10938 23.5156 7.10938H22.3438C21.8062 7.10938 21.3375 7.475 21.207 7.99688L20.5688 10.5508C19.6742 14.1273 16.8344 18.0734 13.8953 18.7906C13.3805 17.4875 12.1094 16.5625 10.625 16.5625H3.59375C2.94688 16.5625 2.42188 17.0875 2.42188 17.7344V38.8281C2.42188 39.475 2.94688 40 3.59375 40H10.625C12.0227 40 13.232 39.1805 13.7984 37.9961L17.825 39.3383C19.1414 39.7773 20.5133 40 21.9016 40H31.7188C33.657 40 35.2344 38.4227 35.2344 36.4844C35.2344 36.0273 35.1469 35.5898 34.9875 35.1891C36.4781 34.782 37.5781 33.4156 37.5781 31.7969C37.5781 30.8977 37.2383 30.0758 36.6805 29.4531C37.2383 28.8305 37.5781 28.0086 37.5781 27.1094C37.5781 26.2102 37.2383 25.3883 36.6805 24.7656ZM11.7969 36.4844C11.7969 37.1305 11.2711 37.6562 10.625 37.6562H4.76562V18.9062H10.625C11.2711 18.9062 11.7969 19.432 11.7969 20.0781V36.4844ZM31.7188 25.9375H34.0625C34.7086 25.9375 35.2344 26.4633 35.2344 27.1094C35.2344 27.7555 34.7086 28.2812 34.0625 28.2812H31.7188C31.0719 28.2812 30.5469 28.8062 30.5469 29.4531C30.5469 30.1 31.0719 30.625 31.7188 30.625H34.0625C34.7086 30.625 35.2344 31.1508 35.2344 31.7969C35.2344 32.443 34.7086 32.9688 34.0625 32.9688H31.7188C31.0719 32.9688 30.5469 33.4937 30.5469 34.1406C30.5469 34.7875 31.0719 35.3125 31.7188 35.3125C32.3648 35.3125 32.8906 35.8383 32.8906 36.4844C32.8906 37.1305 32.3648 37.6562 31.7188 37.6562H21.9016C20.7656 37.6562 19.643 37.4742 18.5656 37.1148L14.1406 35.6398V21.1391C15.9789 20.7898 17.7781 19.6258 19.4023 17.7203C20.9883 15.8594 22.2742 13.3922 22.8422 11.1195L23.2586 9.45312H23.5156C24.8078 9.45312 25.8594 10.5047 25.8594 11.7969V12.968C25.8594 14.5414 25.3672 17.5594 24.7375 18.9062H22.3438C21.6969 18.9062 21.1719 19.4312 21.1719 20.0781C21.1719 20.725 21.6969 21.25 22.3438 21.25H34.0625C34.7086 21.25 35.2344 21.7758 35.2344 22.4219C35.2344 23.068 34.7086 23.5938 34.0625 23.5938H31.7188C31.0719 23.5938 30.5469 24.1187 30.5469 24.7656C30.5469 25.4125 31.0719 25.9375 31.7188 25.9375Z" fill="#1F4B3F"/>
<path d="M8.28125 35.3125C8.92846 35.3125 9.45312 34.7878 9.45312 34.1406C9.45312 33.4934 8.92846 32.9688 8.28125 32.9688C7.63404 32.9688 7.10938 33.4934 7.10938 34.1406C7.10938 34.7878 7.63404 35.3125 8.28125 35.3125Z" fill="#1F4B3F"/>
<path d="M24.6875 0C24.0403 0 23.5156 0.524687 23.5156 1.17188V3.59375C23.5156 4.24094 24.0403 4.76562 24.6875 4.76562C25.3347 4.76562 25.8594 4.24094 25.8594 3.59375V1.17188C25.8594 0.524687 25.3347 0 24.6875 0Z" fill="#1F4B3F"/>
<path d="M19.7164 5.16848L18.0591 3.51121C17.6015 3.05355 16.8595 3.05355 16.4018 3.51121C15.9442 3.96887 15.9442 4.71082 16.4018 5.16848L18.0591 6.82574C18.5167 7.28332 19.2588 7.2834 19.7164 6.82574C20.174 6.36809 20.174 5.62613 19.7164 5.16848Z" fill="#1F4B3F"/>
<path d="M32.9742 3.51121C32.5166 3.05355 31.7746 3.05355 31.3169 3.51121L29.6596 5.1684C29.202 5.62605 29.202 6.36801 29.6596 6.82566C30.1172 7.28332 30.8593 7.2834 31.3169 6.82574L32.9742 5.16848C33.4318 4.71082 33.4318 3.96887 32.9742 3.51121Z" fill="#1F4B3F"/>
</svg>
