<svg width="12" height="18" viewBox="0 0 12 18" fill="none" xmlns="http://www.w3.org/2000/svg">
<g id="Group">
<path id="Vector" d="M9.69141 5.83594C9.69141 3.79515 8.03498 2.10938 6 2.10938C3.96765 2.10938 2.30859 3.7928 2.30859 5.83594C2.30859 7.87138 3.96456 9.52734 6 9.52734C8.03544 9.52734 9.69141 7.87138 9.69141 5.83594ZM3.36328 5.83594C3.36328 4.36264 4.54611 3.16406 6 3.16406C7.45389 3.16406 8.63672 4.36264 8.63672 5.83594C8.63672 7.28982 7.45389 8.47266 6 8.47266C4.54611 8.47266 3.36328 7.28982 3.36328 5.83594Z" fill="#222222"/>
<path id="Vector_2" d="M11.8008 5.83594C11.8008 2.6363 9.2034 0 6 0C2.97604 0 0.199219 2.41587 0.199219 5.83594C0.199219 7.9683 2.28701 11.1906 3.52662 12.9612C2.1486 13.2382 0.199219 13.9534 0.199219 15.3633C0.199219 17.3795 3.95464 18 6 18C8.04553 18 11.8008 17.3795 11.8008 15.3633C11.8008 13.9533 9.85123 13.2382 8.47338 12.9612C9.70663 11.1997 11.8008 7.97077 11.8008 5.83594ZM1.25391 5.83594C1.25391 2.88271 3.71748 1.05469 6 1.05469C8.617 1.05469 10.7461 3.19954 10.7461 5.83594C10.7461 8.0692 7.62555 12.4714 5.99996 14.5246C4.37423 12.4718 1.25391 8.07057 1.25391 5.83594ZM10.7461 15.3633C10.7461 16.2443 8.16348 16.9453 6 16.9453C3.8394 16.9453 1.25391 16.2438 1.25391 15.3633C1.25391 14.9436 2.19595 14.2159 4.20984 13.912C4.97899 14.9557 5.55791 15.6562 5.59398 15.6998C5.69414 15.8207 5.84299 15.8906 6 15.8906C6.15701 15.8906 6.30586 15.8207 6.40602 15.6998C6.44209 15.6562 7.02101 14.9557 7.79016 13.912C9.80405 14.2159 10.7461 14.9436 10.7461 15.3633Z" fill="#222222"/>
</g>
</svg>
