<svg width="58" height="52" viewBox="0 0 58 52" fill="none" xmlns="http://www.w3.org/2000/svg">
<circle cx="38" cy="32" r="20" fill="#FBF7ED"/>
<g clip-path="url(#clip0_1356_92310)">
<path d="M38.05 1.95003C37.4323 1.32977 36.6978 0.83809 35.8889 0.503389C35.08 0.168687 34.2129 -0.00239655 33.3375 2.53585e-05H6.6625C4.89549 2.53585e-05 3.20086 0.701965 1.9514 1.95143C0.70194 3.20089 0 4.89552 0 6.66253L0 33.3375C0 35.1045 0.70194 36.7992 1.9514 38.0486C3.20086 39.2981 4.89549 40 6.6625 40H33.3375C35.1045 40 36.7991 39.2981 38.0486 38.0486C39.2981 36.7992 40 35.1045 40 33.3375V6.66253C40.0024 5.78715 39.8313 4.91998 39.4966 4.11112C39.1619 3.30225 38.6703 2.56774 38.05 1.95003ZM37.3375 33.325C37.3375 34.3859 36.9161 35.4033 36.1659 36.1535C35.4158 36.9036 34.3984 37.325 33.3375 37.325H6.6625C5.60163 37.325 4.58422 36.9036 3.83407 36.1535C3.08393 35.4033 2.6625 34.3859 2.6625 33.325V6.66253C2.6625 5.60166 3.08393 4.58424 3.83407 3.8341C4.58422 3.08395 5.60163 2.66253 6.6625 2.66253H33.3375C34.3984 2.66253 35.4158 3.08395 36.1659 3.8341C36.9161 4.58424 37.3375 5.60166 37.3375 6.66253V33.325Z" fill="#1F4B3F"/>
<path d="M13.3377 5.88906H9.33774C9.15208 5.87105 8.96471 5.89207 8.78765 5.95078C8.6106 6.00949 8.44778 6.10458 8.30966 6.22995C8.17154 6.35532 8.06117 6.50819 7.98564 6.67875C7.91011 6.84931 7.87109 7.03378 7.87109 7.22031C7.87109 7.40685 7.91011 7.59132 7.98564 7.76188C8.06117 7.93243 8.17154 8.08531 8.30966 8.21068C8.44778 8.33605 8.6106 8.43114 8.78765 8.48985C8.96471 8.54855 9.15208 8.56957 9.33774 8.55156H13.3377C13.6686 8.51947 13.9756 8.36535 14.199 8.11925C14.4223 7.87314 14.5461 7.55268 14.5461 7.22031C14.5461 6.88794 14.4223 6.56748 14.199 6.32138C13.9756 6.07527 13.6686 5.92116 13.3377 5.88906Z" fill="#1F4B3F"/>
<path d="M21.0001 21.3357H19.0001C18.5575 21.3357 18.133 21.1599 17.8201 20.8469C17.5071 20.534 17.3313 20.1095 17.3313 19.6669C17.3313 19.2244 17.5071 18.7999 17.8201 18.487C18.133 18.174 18.5575 17.9982 19.0001 17.9982H22.2626C22.5934 17.9661 22.9004 17.812 23.1238 17.5659C23.3472 17.3198 23.4709 16.9993 23.4709 16.6669C23.4709 16.3346 23.3472 16.0141 23.1238 15.768C22.9004 15.5219 22.5934 15.3678 22.2626 15.3357H21.3251V14.6732C21.293 14.3424 21.1388 14.0354 20.8927 13.812C20.6466 13.5886 20.3262 13.4648 19.9938 13.4648C19.6614 13.4648 19.341 13.5886 19.0949 13.812C18.8488 14.0354 18.6947 14.3424 18.6626 14.6732V15.3732C17.5464 15.4582 16.5067 15.9727 15.762 16.8084C15.0173 17.6441 14.6256 18.736 14.6693 19.8546C14.713 20.9731 15.1887 22.0311 15.9963 22.8062C16.804 23.5813 17.8807 24.013 19.0001 24.0107H21.0001C21.4426 24.0107 21.8671 24.1865 22.18 24.4995C22.493 24.8124 22.6688 25.2369 22.6688 25.6794C22.6688 26.122 22.493 26.5465 22.18 26.8594C21.8671 27.1724 21.4426 27.3482 21.0001 27.3482H17.7376C17.4067 27.3803 17.0997 27.5344 16.8763 27.7805C16.653 28.0266 16.5292 28.3471 16.5292 28.6794C16.5292 29.0118 16.653 29.3323 16.8763 29.5784C17.0997 29.8245 17.4067 29.9786 17.7376 30.0107H18.6751V30.6732C18.7071 31.004 18.8613 31.311 19.1074 31.5344C19.3535 31.7578 19.6739 31.8815 20.0063 31.8815C20.3387 31.8815 20.6591 31.7578 20.9052 31.5344C21.1513 31.311 21.3055 31.004 21.3376 30.6732V29.9982C22.4537 29.9132 23.4934 29.3987 24.2381 28.563C24.9828 27.7273 25.3745 26.6354 25.3308 25.5168C25.2871 24.3983 24.8114 23.3403 24.0038 22.5652C23.1961 21.7901 22.1194 21.3584 21.0001 21.3607V21.3357Z" fill="#1F4B3F"/>
</g>
<defs>
<clipPath id="clip0_1356_92310">
<rect width="40" height="40" fill="white"/>
</clipPath>
</defs>
</svg>
