<svg width="58" height="52" viewBox="0 0 58 52" fill="none" xmlns="http://www.w3.org/2000/svg">
<circle cx="38" cy="32" r="20" fill="#FBF7ED"/>
<g clip-path="url(#clip0_1356_92326)">
<path d="M38.8281 14.1406H35.2344C35.2344 13.7616 35.2344 2.05139 35.2344 1.17188C35.2344 0.524597 34.7098 0 34.0625 0H27.0312C26.384 0 25.8594 0.524597 25.8594 1.17188V2.34375H17.6562C17.2241 2.34375 16.8271 2.58179 16.6229 2.96265C16.4191 3.34381 16.4413 3.80615 16.6812 4.16565L18.5916 7.03125L16.6812 9.89685C16.4417 10.2563 16.4191 10.7187 16.6229 11.0999C16.8271 11.4807 17.2241 11.7188 17.6562 11.7188H27.0312C27.6785 11.7188 28.2031 11.1938 28.2031 10.5469V9.375H32.8906V14.1406H29.375C28.728 14.1406 28.2031 14.6652 28.2031 15.3125V18.8281H20C19.3527 18.8281 18.8281 19.3527 18.8281 20V23.5156H10.625C9.97772 23.5156 9.45312 24.0402 9.45312 24.6875V30.5469H1.17188C0.524597 30.5469 0 31.0715 0 31.7188V38.8281C0 39.4751 0.524597 40 1.17188 40H38.8281C38.9899 40 39.144 39.967 39.2844 39.9078C39.7049 39.7299 40 39.3137 40 38.8281V15.3125C40 14.6652 39.4754 14.1406 38.8281 14.1406ZM25.8594 9.375H19.8459L20.975 7.68127C21.2375 7.2876 21.2375 6.7749 20.975 6.38123L19.8459 4.6875H25.8594V9.375ZM28.2031 7.03125V2.34375H32.8906V7.03125H28.2031ZM30.5469 16.4844H37.6562V37.6562H30.5469V16.4844ZM21.1719 21.1719H28.2031V37.6562H21.1719V21.1719ZM11.7969 25.8594H18.8281V37.6562H11.7969V25.8594ZM2.34375 32.8906H9.45312V37.6562H2.34375V32.8906Z" fill="#1F4B3F"/>
</g>
<defs>
<clipPath id="clip0_1356_92326">
<rect width="40" height="40" fill="white"/>
</clipPath>
</defs>
</svg>
