<svg width="58" height="52" viewBox="0 0 58 52" fill="none" xmlns="http://www.w3.org/2000/svg">
<circle cx="38" cy="32" r="20" fill="#FBF7ED"/>
<g clip-path="url(#clip0_1356_92318)">
<path d="M38.6625 13.3375C38.3078 13.3375 37.9676 13.4784 37.7168 13.7293C37.4659 13.9801 37.325 14.3203 37.325 14.675V24C37.325 24.8749 37.1527 25.7413 36.8179 26.5496C36.483 27.358 35.9923 28.0924 35.3736 28.7111C34.7549 29.3298 34.0205 29.8205 33.2121 30.1554C32.4038 30.4902 31.5374 30.6625 30.6625 30.6625H22.6625C22.3787 30.6634 22.1026 30.7554 21.875 30.925C21.875 30.925 16.5125 34.85 12.6875 37.175C12.4855 37.2931 12.2561 37.3561 12.0222 37.3579C11.7882 37.3596 11.5579 37.2999 11.3543 37.1848C11.1506 37.0697 10.9807 36.9031 10.8615 36.7018C10.7423 36.5005 10.678 36.2714 10.675 36.0375V32C10.675 31.6453 10.5341 31.3051 10.2833 31.0543C10.0324 30.8034 9.69223 30.6625 9.33751 30.6625C8.46152 30.6642 7.59382 30.493 6.78404 30.1589C5.97427 29.8249 5.23832 29.3344 4.61833 28.7155C3.99833 28.0967 3.50646 27.3617 3.17085 26.5525C2.83525 25.7434 2.66251 24.876 2.66251 24V9.33751C2.66086 8.46047 2.83239 7.59174 3.16726 6.78115C3.50212 5.97056 3.99374 5.23406 4.6139 4.6139C5.23406 3.99374 5.97056 3.50212 6.78115 3.16726C7.59174 2.83239 8.46047 2.66086 9.33751 2.66251H25.3375C25.6683 2.63041 25.9753 2.4763 26.1987 2.23019C26.4221 1.98409 26.5459 1.66363 26.5459 1.33126C26.5459 0.99889 26.4221 0.678429 26.1987 0.432323C25.9753 0.186218 25.6683 0.0321021 25.3375 8.39003e-06H9.33751C8.11083 -0.00163706 6.89588 0.238761 5.76226 0.707432C4.62864 1.1761 3.59862 1.86383 2.73123 2.73123C1.86383 3.59862 1.1761 4.62864 0.707432 5.76226C0.238761 6.89588 -0.00163706 8.11083 8.39003e-06 9.33751V24C-0.00130579 26.2434 0.807258 28.4118 2.27704 30.1067C3.74682 31.8015 5.77902 32.9088 8.00001 33.225V36C8.00041 36.7081 8.18878 37.4034 8.54586 38.0149C8.90295 38.6264 9.41597 39.1321 10.0325 39.4804C10.649 39.8287 11.3469 40.0071 12.055 39.9974C12.763 39.9876 13.4558 39.7901 14.0625 39.425C17.4625 37.3875 21.8375 34.25 23.1 33.325H30.6625C31.8881 33.3267 33.1021 33.0867 34.2349 32.6188C35.3677 32.1509 36.3971 31.4643 37.2644 30.5982C38.1316 29.7321 38.8196 28.7036 39.289 27.5714C39.7584 26.4392 40 25.2256 40 24V14.6625C39.9967 14.31 39.8543 13.973 39.6039 13.7248C39.3534 13.4767 39.0151 13.3375 38.6625 13.3375Z" fill="#1F4B3F"/>
<path d="M13.3377 15.9984C13.1521 15.9804 12.9647 16.0014 12.7877 16.0602C12.6106 16.1189 12.4478 16.214 12.3097 16.3393C12.1715 16.4647 12.0612 16.6176 11.9856 16.7881C11.9101 16.9587 11.8711 17.1432 11.8711 17.3297C11.8711 17.5162 11.9101 17.7007 11.9856 17.8713C12.0612 18.0418 12.1715 18.1947 12.3097 18.3201C12.4478 18.4454 12.6106 18.5405 12.7877 18.5992C12.9647 18.6579 13.1521 18.6789 13.3377 18.6609H26.6627C26.8484 18.6789 27.0358 18.6579 27.2128 18.5992C27.3899 18.5405 27.5527 18.4454 27.6908 18.3201C27.8289 18.1947 27.9393 18.0418 28.0148 17.8713C28.0904 17.7007 28.1294 17.5162 28.1294 17.3297C28.1294 17.1432 28.0904 16.9587 28.0148 16.7881C27.9393 16.6176 27.8289 16.4647 27.6908 16.3393C27.5527 16.214 27.3899 16.1189 27.2128 16.0602C27.0358 16.0014 26.8484 15.9804 26.6627 15.9984H13.3377Z" fill="#1F4B3F"/>
<path d="M34.6617 10.6633C35.7174 10.6633 36.7493 10.3502 37.6271 9.76375C38.5048 9.17726 39.1889 8.34366 39.5929 7.36836C39.9969 6.39306 40.1026 5.31986 39.8967 4.28449C39.6907 3.24912 39.1824 2.29806 38.4359 1.5516C37.6894 0.805138 36.7384 0.296791 35.703 0.0908422C34.6676 -0.115106 33.5944 -0.00940609 32.6191 0.394577C31.6438 0.798559 30.8102 1.48268 30.2238 2.36043C29.6373 3.23817 29.3242 4.27013 29.3242 5.32578C29.3242 6.74138 29.8866 8.09899 30.8875 9.09997C31.8885 10.1009 33.2461 10.6633 34.6617 10.6633ZM34.6617 2.66328C35.1878 2.66329 35.702 2.81913 36.1396 3.11114C36.5772 3.40315 36.9184 3.81824 37.1203 4.30402C37.3222 4.7898 37.3757 5.3245 37.2739 5.84063C37.1722 6.35676 36.9199 6.83119 36.5488 7.20404C36.1777 7.57689 35.7044 7.83145 35.1888 7.93559C34.6731 8.03973 34.1382 7.98879 33.6515 7.78918C33.1647 7.58958 32.7481 7.25027 32.454 6.81407C32.1599 6.37787 32.0017 5.86434 31.9992 5.33828C31.9992 4.63099 32.2793 3.95248 32.7783 3.45118C33.2772 2.94988 33.9544 2.66659 34.6617 2.66328Z" fill="#1F4B3F"/>
</g>
<defs>
<clipPath id="clip0_1356_92318">
<rect width="40" height="40" fill="white"/>
</clipPath>
</defs>
</svg>
