<svg width="21" height="20" viewBox="0 0 21 20" fill="none" xmlns="http://www.w3.org/2000/svg">
<g id="Group">
<g id="Group_2">
<path id="Vector" d="M19.9444 0H7.72225C7.41517 0 7.16668 0.24849 7.16668 0.555573C7.16668 0.862656 7.41517 1.11115 7.72225 1.11115H18.6033L0.662773 19.0517C0.445742 19.2687 0.445742 19.6203 0.662773 19.8372C0.771263 19.9457 0.91345 20 1.05559 20C1.19772 20 1.33986 19.9457 1.4484 19.8372L19.3889 1.89672V12.7778C19.3889 13.0849 19.6374 13.3334 19.9445 13.3334C20.2516 13.3334 20.5001 13.0849 20.5001 12.7778V0.555573C20.5 0.24849 20.2515 0 19.9444 0Z" fill="#5BBB7B"/>
</g>
</g>
</svg>
