<svg width="50" height="12" viewBox="0 0 50 12" fill="none" xmlns="http://www.w3.org/2000/svg">
<g id=".com">
<path d="M1.74956 11.3942C1.23927 11.3942 0.816461 11.2391 0.481129 10.9288C0.160376 10.6186 0 10.2449 0 9.80769C0 9.35641 0.160376 8.97564 0.481129 8.66538C0.816461 8.35513 1.23927 8.2 1.74956 8.2C2.25985 8.2 2.67537 8.35513 2.99612 8.66538C3.33145 8.97564 3.49912 9.35641 3.49912 9.80769C3.49912 10.2449 3.33145 10.6186 2.99612 10.9288C2.67537 11.2391 2.25985 11.3942 1.74956 11.3942Z" fill="#5BBB7B"/>
<path d="M11.1148 11.5C10.0068 11.5 9.02994 11.2673 8.18432 10.8019C7.3387 10.3365 6.66803 9.68782 6.17232 8.85577C5.6912 8.02372 5.45063 7.07179 5.45063 6C5.45063 4.92821 5.6912 3.97628 6.17232 3.14423C6.66803 2.31218 7.3387 1.66346 8.18432 1.19808C9.02994 0.732692 10.0068 0.5 11.1148 0.5C12.4999 0.5 13.6663 0.852564 14.614 1.55769C15.5616 2.24872 16.1667 3.20769 16.4291 4.43462H13.4767C13.3309 3.92692 13.0393 3.53205 12.602 3.25C12.1791 2.95385 11.6761 2.80577 11.093 2.80577C10.3202 2.80577 9.66415 3.08782 9.12471 3.65192C8.58526 4.21603 8.31554 4.99872 8.31554 6C8.31554 7.00128 8.58526 7.78397 9.12471 8.34808C9.66415 8.91218 10.3202 9.19423 11.093 9.19423C11.6761 9.19423 12.1791 9.05321 12.602 8.77115C13.0393 8.4891 13.3309 8.08718 13.4767 7.56538H16.4291C16.1667 8.75 15.5616 9.70192 14.614 10.4212C13.6663 11.1404 12.4999 11.5 11.1148 11.5Z" fill="#5BBB7B"/>
<path d="M24.1186 11.5C23.0689 11.5 22.1212 11.2673 21.2756 10.8019C20.4446 10.3365 19.7812 9.69487 19.2855 8.87692C18.8043 8.04487 18.5638 7.0859 18.5638 6C18.5638 4.9141 18.8116 3.96218 19.3073 3.14423C19.8031 2.31218 20.4664 1.66346 21.2975 1.19808C22.1431 0.732692 23.0908 0.5 24.1405 0.5C25.1757 0.5 26.1088 0.732692 26.9398 1.19808C27.7854 1.66346 28.4488 2.31218 28.9299 3.14423C29.4256 3.96218 29.6735 4.9141 29.6735 6C29.6735 7.0859 29.4256 8.04487 28.9299 8.87692C28.4488 9.69487 27.7854 10.3365 26.9398 10.8019C26.0942 11.2673 25.1538 11.5 24.1186 11.5ZM24.1186 9.15192C24.8476 9.15192 25.4818 8.89103 26.0213 8.36923C26.5607 7.83333 26.8305 7.04359 26.8305 6C26.8305 4.95641 26.5607 4.17372 26.0213 3.65192C25.4818 3.11603 24.8549 2.84808 24.1405 2.84808C23.3969 2.84808 22.7554 3.11603 22.216 3.65192C21.6911 4.17372 21.4287 4.95641 21.4287 6C21.4287 7.04359 21.6911 7.83333 22.216 8.36923C22.7554 8.89103 23.3897 9.15192 24.1186 9.15192Z" fill="#5BBB7B"/>
<path d="M32.1764 11.2462V0.753846H34.6476L34.8882 2.17115C35.2381 1.66346 35.6973 1.26154 36.2659 0.965384C36.8491 0.655128 37.5198 0.5 38.2779 0.5C39.9546 0.5 41.1428 1.12756 41.8427 2.38269C42.2363 1.80449 42.7612 1.34615 43.4173 1.00769C44.0879 0.669231 44.8169 0.5 45.6042 0.5C47.0185 0.5 48.1046 0.908974 48.8628 1.72692C49.6209 2.54487 50 3.74359 50 5.32308V11.2462H47.2007V5.57692C47.2007 4.67436 47.0185 3.98333 46.654 3.50385C46.3041 3.02436 45.7573 2.78462 45.0137 2.78462C44.2556 2.78462 43.6433 3.05256 43.1767 3.58846C42.7247 4.12436 42.4988 4.8718 42.4988 5.83077V11.2462H39.6995V5.57692C39.6995 4.67436 39.5172 3.98333 39.1527 3.50385C38.7882 3.02436 38.2269 2.78462 37.4688 2.78462C36.7252 2.78462 36.1202 3.05256 35.6536 3.58846C35.2016 4.12436 34.9757 4.8718 34.9757 5.83077V11.2462H32.1764Z" fill="#5BBB7B"/>
</g>
</svg>
