<svg width="20" height="20" viewBox="0 0 20 20" fill="none" xmlns="http://www.w3.org/2000/svg">
<g id="eye">
<path id="Icon (Stroke)" fill-rule="evenodd" clip-rule="evenodd" d="M5.29825 6.86974C4.04301 7.91738 3.16459 9.14846 2.7207 9.85131C2.69125 9.89795 2.67065 9.93062 2.65343 9.95897C2.64207 9.97767 2.63457 9.99062 2.62956 9.99964L2.62956 10.0007L2.62956 10.0017C2.63457 10.0107 2.64207 10.0236 2.65343 10.0423C2.67065 10.0707 2.69125 10.1034 2.7207 10.15C3.16459 10.8528 4.04301 12.0839 5.29825 13.1316C6.55153 14.1776 8.13024 15.0007 9.99969 15.0007C11.8691 15.0007 13.4478 14.1776 14.7011 13.1316C15.9564 12.0839 16.8348 10.8528 17.2787 10.15C17.3081 10.1034 17.3287 10.0707 17.3459 10.0423C17.3573 10.0236 17.3648 10.0107 17.3698 10.0017L17.3698 10.0007L17.3698 9.99964C17.3648 9.99062 17.3573 9.97767 17.3459 9.95897C17.3287 9.93062 17.3081 9.89795 17.2787 9.85131C16.8348 9.14846 15.9564 7.91738 14.7011 6.86974C13.4478 5.82373 11.8691 5.00065 9.99969 5.00065C8.13024 5.00065 6.55153 5.82373 5.29825 6.86974ZM4.23031 5.59018C5.67081 4.38792 7.61496 3.33398 9.99969 3.33398C12.3844 3.33398 14.3286 4.38792 15.7691 5.59018C17.2076 6.7908 18.1939 8.17922 18.6878 8.96136C18.6944 8.97169 18.7011 8.98224 18.7079 8.99302C18.8059 9.1473 18.9332 9.34762 18.9975 9.62829C19.0495 9.85492 19.0495 10.1464 18.9975 10.373C18.9332 10.6537 18.8059 10.854 18.7079 11.0083C18.7011 11.0191 18.6944 11.0296 18.6878 11.0399C18.1939 11.8221 17.2076 13.2105 15.7691 14.4111C14.3286 15.6134 12.3844 16.6673 9.99969 16.6673C7.61496 16.6673 5.67081 15.6134 4.23031 14.4111C2.79177 13.2105 1.80549 11.8221 1.31153 11.0399C1.30501 11.0296 1.29831 11.0191 1.29146 11.0083C1.19345 10.854 1.06618 10.6537 1.00185 10.373C0.949904 10.1464 0.949904 9.85492 1.00185 9.62829C1.06618 9.34761 1.19345 9.14729 1.29146 8.99301C1.29831 8.98224 1.30501 8.97169 1.31153 8.96136C1.80549 8.17922 2.79177 6.7908 4.23031 5.59018ZM9.99969 8.33398C9.07921 8.33398 8.33302 9.08018 8.33302 10.0007C8.33302 10.9211 9.07921 11.6673 9.99969 11.6673C10.9202 11.6673 11.6664 10.9211 11.6664 10.0007C11.6664 9.08018 10.9202 8.33398 9.99969 8.33398ZM6.66635 10.0007C6.66635 8.1597 8.15874 6.66732 9.99969 6.66732C11.8406 6.66732 13.333 8.1597 13.333 10.0007C13.333 11.8416 11.8406 13.334 9.99969 13.334C8.15874 13.334 6.66635 11.8416 6.66635 10.0007Z" fill="#222222"/>
</g>
</svg>
