<svg width="43" height="16" viewBox="0 0 43 16" fill="none" xmlns="http://www.w3.org/2000/svg">
<g id="Tskr">
<path d="M4.45932 15.2541V3.02049H0V0.909836H11.7385V3.02049H7.25732V15.2541H4.45932Z" fill="#222222"/>
<path d="M16.8179 15.5C15.8561 15.5 15.0109 15.3566 14.2822 15.0697C13.5536 14.7691 12.9707 14.3593 12.5335 13.8402C12.0963 13.321 11.834 12.7199 11.7465 12.0369H14.5664C14.6538 12.4331 14.887 12.7746 15.2659 13.0615C15.6594 13.3347 16.1621 13.4713 16.7742 13.4713C17.3862 13.4713 17.8307 13.3552 18.1076 13.123C18.3991 12.8907 18.5448 12.6243 18.5448 12.3238C18.5448 11.8866 18.3408 11.5929 17.9327 11.4426C17.5247 11.2787 16.9563 11.1216 16.2277 10.9713C15.7614 10.8757 15.2877 10.7596 14.8068 10.623C14.3259 10.4863 13.8815 10.3156 13.4734 10.1107C13.0799 9.89208 12.7593 9.61885 12.5116 9.29098C12.2639 8.94945 12.14 8.53279 12.14 8.04098C12.14 7.13934 12.5189 6.38115 13.2767 5.76639C14.049 5.15164 15.1274 4.84426 16.5119 4.84426C17.7943 4.84426 18.8144 5.12432 19.5722 5.68443C20.3446 6.24454 20.8036 7.01639 20.9493 8H18.3043C18.144 7.24863 17.5393 6.87295 16.49 6.87295C15.9654 6.87295 15.5573 6.96858 15.2659 7.15984C14.989 7.35109 14.8506 7.59016 14.8506 7.87705C14.8506 8.1776 15.0619 8.41667 15.4845 8.59426C15.9071 8.77186 16.4682 8.93579 17.1677 9.08607C17.9254 9.25 18.6177 9.43443 19.2443 9.63934C19.8855 9.8306 20.3956 10.1243 20.7745 10.5205C21.1534 10.903 21.3428 11.4563 21.3428 12.1803C21.3574 12.8087 21.1825 13.3757 20.8182 13.8811C20.4539 14.3866 19.9292 14.7828 19.2443 15.0697C18.5594 15.3566 17.7506 15.5 16.8179 15.5Z" fill="#222222"/>
<path d="M23.8215 15.2541V0.5H26.6195V9.20902L30.4667 5.09016H33.7893L29.3519 9.72131L34.5107 15.2541H31.0132L26.6195 10.1516V15.2541H23.8215Z" fill="#222222"/>
<path d="M36.2454 15.2541V5.09016H38.7374L38.9997 6.9959C39.3932 6.34016 39.9251 5.82104 40.5955 5.43852C41.2804 5.04235 42.0819 4.84426 43 4.84426V7.61066H42.2131C41.601 7.61066 41.0545 7.69945 40.5736 7.87705C40.0927 8.05464 39.7138 8.36202 39.4369 8.79918C39.1746 9.23634 39.0434 9.84426 39.0434 10.623V15.2541H36.2454Z" fill="#222222"/>
</g>
</svg>
