<svg width="17" height="16" viewBox="0 0 17 16" fill="none" xmlns="http://www.w3.org/2000/svg">
<g id="30-days 1" clip-path="url(#clip0_1121_90773)">
<g id="Group">
<path id="Vector" d="M15.0938 1.3125H14.5938V0.46875C14.5938 0.209875 14.3839 0 14.125 0C13.8661 0 13.6562 0.209875 13.6562 0.46875V1.3125H10.8438V0.46875C10.8438 0.209875 10.6339 0 10.375 0C10.1161 0 9.90625 0.209875 9.90625 0.46875V1.3125H7.09375V0.46875C7.09375 0.209875 6.88387 0 6.625 0C6.36613 0 6.15625 0.209875 6.15625 0.46875V1.3125H3.34375V0.46875C3.34375 0.209875 3.13387 0 2.875 0C2.61613 0 2.40625 0.209875 2.40625 0.46875V1.3125H1.90625C1.13084 1.3125 0.5 1.94334 0.5 2.71875V14.5938C0.5 15.3692 1.13084 16 1.90625 16H15.0938C15.8692 16 16.5 15.3692 16.5 14.5938V2.71875C16.5 1.94334 15.8692 1.3125 15.0938 1.3125ZM15.5625 14.5938C15.5625 14.8522 15.3522 15.0625 15.0938 15.0625H1.90625C1.64778 15.0625 1.4375 14.8522 1.4375 14.5938V6H15.5625V14.5938ZM15.5625 5.0625H1.4375V2.71875C1.4375 2.46028 1.64778 2.25 1.90625 2.25H2.40625V3.09375C2.40625 3.35262 2.61613 3.5625 2.875 3.5625C3.13387 3.5625 3.34375 3.35262 3.34375 3.09375V2.25H6.15625V3.09375C6.15625 3.35262 6.36613 3.5625 6.625 3.5625C6.88387 3.5625 7.09375 3.35262 7.09375 3.09375V2.25H9.90625V3.09375C9.90625 3.35262 10.1161 3.5625 10.375 3.5625C10.6339 3.5625 10.8438 3.35262 10.8438 3.09375V2.25H13.6562V3.09375C13.6562 3.35262 13.8661 3.5625 14.125 3.5625C14.3839 3.5625 14.5938 3.35262 14.5938 3.09375V2.25H15.0938C15.3522 2.25 15.5625 2.46028 15.5625 2.71875V5.0625Z" fill="#1F4B3F"/>
<path id="Vector_2" d="M6.50391 12.25C6.19381 12.25 5.92772 12.019 5.88497 11.7126C5.88094 11.6839 5.87891 11.6544 5.87891 11.625C5.87891 11.3661 5.66903 11.1562 5.41016 11.1562C5.15128 11.1562 4.94141 11.3661 4.94141 11.625C4.94141 11.6977 4.9465 11.7708 4.95647 11.8423C5.06347 12.6092 5.72872 13.1875 6.50391 13.1875C7.36547 13.1875 8.06641 12.4865 8.06641 11.625C8.06641 11.1994 7.89522 10.8133 7.61834 10.5312C7.89522 10.2492 8.06641 9.86303 8.06641 9.4375C8.06641 8.57594 7.36547 7.875 6.50391 7.875C5.75897 7.875 5.11416 8.40497 4.97072 9.13513C4.92081 9.38916 5.08628 9.63553 5.34031 9.68544C5.59434 9.73534 5.84072 9.56984 5.89062 9.31584C5.94791 9.02419 6.20584 8.8125 6.50391 8.8125C6.84853 8.8125 7.12891 9.09288 7.12891 9.4375C7.12891 9.78209 6.84853 10.0625 6.50391 10.0625C6.24503 10.0625 6.03516 10.2723 6.03516 10.5312C6.03516 10.7901 6.24503 11 6.50391 11C6.84853 11 7.12891 11.2803 7.12891 11.625C7.12891 11.9696 6.84853 12.25 6.50391 12.25Z" fill="#1F4B3F"/>
<path id="Vector_3" d="M10.3757 13.1875C11.3044 13.1875 12.06 12.4319 12.06 11.5032V9.55931C12.06 8.63056 11.3044 7.875 10.3757 7.875C9.44697 7.875 8.69141 8.63056 8.69141 9.55928V11.5032C8.69141 12.4319 9.44697 13.1875 10.3757 13.1875ZM9.62891 9.55928C9.62891 9.1475 9.96391 8.8125 10.3757 8.8125C10.7875 8.8125 11.1225 9.1475 11.1225 9.55928V11.5032C11.1225 11.915 10.7875 12.25 10.3757 12.25C9.96391 12.25 9.62891 11.915 9.62891 11.5032V9.55928Z" fill="#1F4B3F"/>
</g>
</g>
<defs>
<clipPath id="clip0_1121_90773">
<rect width="16" height="16" fill="white" transform="translate(0.5)"/>
</clipPath>
</defs>
</svg>
