<svg width="17" height="16" viewBox="0 0 17 16" fill="none" xmlns="http://www.w3.org/2000/svg">
<g id="contract 1">
<path id="Vector" d="M13.2417 15.1129H4.23277C3.73276 15.1092 3.25409 14.9098 2.89943 14.5573C2.72369 14.3825 2.58416 14.1748 2.48883 13.946C2.3935 13.7172 2.34424 13.4718 2.34388 13.224V4.12619C2.34137 3.9386 2.37623 3.75239 2.44643 3.57841C2.51663 3.40443 2.62077 3.24617 2.75277 3.11286L4.5661 1.30841C4.69815 1.17535 4.85536 1.06988 5.02857 0.998155C5.20177 0.92643 5.38752 0.889881 5.57499 0.890636H13.2417C13.6189 0.890636 13.9806 1.04048 14.2473 1.3072C14.514 1.57391 14.6639 1.93566 14.6639 2.31286V13.6906C14.6639 14.0678 14.514 14.4296 14.2473 14.6963C13.9806 14.963 13.6189 15.1129 13.2417 15.1129ZM5.57499 1.8373C5.4501 1.83768 5.33036 1.88717 5.24165 1.97508L3.42388 3.79286C3.33636 3.88183 3.28695 4.00139 3.2861 4.12619V13.2151C3.28599 13.3399 3.31068 13.4635 3.35875 13.5787C3.40681 13.6939 3.4773 13.7985 3.5661 13.8862C3.74488 14.0627 3.98598 14.1617 4.23721 14.1617H13.2417C13.3041 14.1617 13.3659 14.1494 13.4236 14.1255C13.4813 14.1016 13.5338 14.0666 13.5779 14.0225C13.6221 13.9783 13.6571 13.9259 13.681 13.8682C13.7049 13.8105 13.7172 13.7486 13.7172 13.6862V2.31286C13.7172 2.18673 13.6671 2.06577 13.5779 1.97659C13.4887 1.88741 13.3678 1.8373 13.2417 1.8373H5.57499Z" fill="#5BBB7B"/>
<path id="Vector_2" d="M5.17969 4.67969H11.8152V5.62635H5.17969V4.67969Z" fill="#5BBB7B"/>
<path id="Vector_3" d="M5.17969 6.57812H11.8152V7.52479H5.17969V6.57812Z" fill="#5BBB7B"/>
<path id="Vector_4" d="M5.17969 8.47656H8.49969V9.42323H5.17969V8.47656Z" fill="#5BBB7B"/>
<path id="Vector_5" d="M5.17969 11.3203H9.92191V12.267H5.17969V11.3203Z" fill="#5BBB7B"/>
<path id="Vector_6" d="M10.8691 11.3203H11.8158V12.267H10.8691V11.3203Z" fill="#5BBB7B"/>
</g>
</svg>
