<svg width="20" height="34" viewBox="0 0 20 34" fill="none" xmlns="http://www.w3.org/2000/svg">
<g id="Group 1171275590">
<path id="Vector" d="M17.5055 10.2658C17.1746 9.33033 16.5703 8.51497 15.7704 7.92461C14.9706 7.33425 14.0117 6.99591 13.0172 6.95312H6.36785C5.04522 6.95312 3.77676 7.47664 2.84152 8.4085C1.90627 9.34035 1.38086 10.6042 1.38086 11.9221C1.38086 13.2399 1.90627 14.5038 2.84152 15.4356C3.77676 16.3675 5.04522 16.891 6.36785 16.891H13.0172C14.3398 16.891 15.6083 17.4145 16.5435 18.3464C17.4787 19.2782 18.0042 20.5421 18.0042 21.86C18.0042 23.1778 17.4787 24.4417 16.5435 25.3735C15.6083 26.3054 14.3398 26.8289 13.0172 26.8289H6.36785C5.37335 26.7861 4.41446 26.4478 3.61458 25.8574C2.8147 25.2671 2.21044 24.4517 1.87956 23.5163" stroke="#2DC66A" stroke-width="2.75" stroke-linecap="round" stroke-linejoin="round"/>
<path id="Vector_2" d="M9.69238 1.98438V6.95332M9.69238 26.8291V31.7981" stroke="#2DC66A" stroke-width="2.75" stroke-linecap="round" stroke-linejoin="round"/>
</g>
</svg>
