<svg width="47" height="46" viewBox="0 0 47 46" fill="none" xmlns="http://www.w3.org/2000/svg">
<g id="Frame" clip-path="url(#clip0_1121_90309)">
<path id="Vector" d="M32.505 15.4715C32.1279 14.3997 31.4393 13.4654 30.5277 12.7889C29.6161 12.1125 28.5234 11.7248 27.39 11.6758H19.8122C18.3049 11.6758 16.8593 12.2756 15.7935 13.3434C14.7277 14.4111 14.1289 15.8593 14.1289 17.3694C14.1289 18.8794 14.7277 20.3276 15.7935 21.3953C16.8593 22.4631 18.3049 23.063 19.8122 23.063H27.39C28.8973 23.063 30.3429 23.6628 31.4087 24.7306C32.4746 25.7983 33.0733 27.2465 33.0733 28.7565C33.0733 30.2666 32.4746 31.7148 31.4087 32.7825C30.3429 33.8503 28.8973 34.4501 27.39 34.4501H19.8122C18.6789 34.4011 17.5861 34.0134 16.6745 33.337C15.763 32.6605 15.0743 31.7262 14.6972 30.6544" stroke="#2DC66A" stroke-width="2.75" stroke-linecap="round" stroke-linejoin="round"/>
<path id="Vector_2" d="M23.6016 5.98438V11.678M23.6016 34.4523V40.1459" stroke="#2DC66A" stroke-width="2.75" stroke-linecap="round" stroke-linejoin="round"/>
</g>
<defs>
<clipPath id="clip0_1121_90309">
<rect width="45.4666" height="45.5487" fill="white" transform="translate(0.868164 0.289062)"/>
</clipPath>
</defs>
</svg>
