<svg width="47" height="47" viewBox="0 0 47 47" fill="none" xmlns="http://www.w3.org/2000/svg">
<g id="Frame" clip-path="url(#clip0_1121_90454)">
<path id="Vector" d="M32.2427 15.9715C31.8636 14.8997 31.1712 13.9654 30.2547 13.2889C29.3381 12.6125 28.2394 12.2248 27.0999 12.1758H19.4809C17.9653 12.1758 16.5119 12.7756 15.4403 13.8434C14.3686 14.9111 13.7666 16.3593 13.7666 17.8694C13.7666 19.3794 14.3686 20.8276 15.4403 21.8953C16.5119 22.9631 17.9653 23.563 19.4809 23.563H27.0999C28.6154 23.563 30.0688 24.1628 31.1405 25.2306C32.2121 26.2983 32.8141 27.7465 32.8141 29.2565C32.8141 30.7666 32.2121 32.2148 31.1405 33.2825C30.0688 34.3503 28.6154 34.9501 27.0999 34.9501H19.4809C18.3413 34.9011 17.2426 34.5134 16.3261 33.837C15.4095 33.1605 14.7172 32.2262 14.338 31.1544" stroke="white" stroke-width="2.75" stroke-linecap="round" stroke-linejoin="round"/>
<path id="Vector_2" d="M23.291 6.48438V12.178M23.291 34.9523V40.6459" stroke="white" stroke-width="2.75" stroke-linecap="round" stroke-linejoin="round"/>
</g>
<defs>
<clipPath id="clip0_1121_90454">
<rect width="45.7141" height="45.5487" fill="white" transform="translate(0.433594 0.789062)"/>
</clipPath>
</defs>
</svg>
