<svg width="17" height="16" viewBox="0 0 17 16" fill="none" xmlns="http://www.w3.org/2000/svg">
<g id="pencil 1" clip-path="url(#clip0_1121_90758)">
<path id="Vector" d="M16.4997 3.10673C16.494 2.69101 16.3252 2.29417 16.0297 2.00173C15.5697 1.53673 14.9797 0.946734 14.5297 0.501734C14.2257 0.212246 13.822 0.0507812 13.4022 0.0507812C12.9824 0.0507813 12.5787 0.212246 12.2747 0.501734L9.27472 3.50173C9.17724 3.60323 9.12281 3.73851 9.12281 3.87923C9.12281 4.01996 9.17724 4.15523 9.27472 4.25673L11.9147 6.89673L6.49972 12.2717C6.4382 12.3746 6.41299 12.4951 6.42811 12.6139C6.44323 12.7328 6.49781 12.8431 6.58311 12.9273C6.66841 13.0114 6.77949 13.0645 6.89854 13.078C7.0176 13.0915 7.13774 13.0646 7.23972 13.0017L16.0297 4.23673C16.179 4.08893 16.2975 3.91292 16.3782 3.71893C16.4589 3.52493 16.5002 3.31684 16.4997 3.10673ZM12.6697 6.10673L10.4047 3.83673L11.2547 3.00173L13.4997 5.24673L12.6697 6.10673ZM15.2747 3.50173L14.2747 4.50173L11.9997 2.23673L12.9997 1.23673C13.1004 1.13958 13.2348 1.08529 13.3747 1.08529C13.5146 1.08529 13.6491 1.13958 13.7497 1.23673C14.2097 1.69173 14.7947 2.27673 15.2497 2.73673C15.3023 2.78487 15.3448 2.84304 15.3746 2.90783C15.4044 2.97261 15.421 3.0427 15.4233 3.11397C15.4256 3.18524 15.4137 3.25626 15.3882 3.32285C15.3626 3.38944 15.3241 3.45026 15.2747 3.50173Z" fill="#2DC66A"/>
<path id="Vector_2" d="M5.73523 14.0715C5.67523 13.8265 5.59523 13.5715 5.52023 13.3465C5.34129 12.8076 5.04213 12.3164 4.6454 11.9102C4.24867 11.5039 3.76474 11.1932 3.23023 11.0015L8.43023 5.7965C8.48525 5.74822 8.52977 5.68917 8.56104 5.623C8.59232 5.55683 8.60969 5.48495 8.61207 5.41179C8.61446 5.33864 8.6018 5.26578 8.5749 5.19771C8.548 5.12965 8.50741 5.06783 8.45566 5.01607C8.4039 4.96432 8.34208 4.92374 8.27402 4.89683C8.20595 4.86993 8.13309 4.85728 8.05994 4.85966C7.98678 4.86204 7.9149 4.87941 7.84873 4.91069C7.78256 4.94196 7.72351 4.98649 7.67523 5.0415L2.52523 10.2015C2.28834 10.4414 2.06785 10.697 1.86523 10.9665C1.35599 11.6603 0.978088 12.4415 0.750233 13.2715L0.555233 14.0015C0.495298 14.2375 0.489854 14.4841 0.539314 14.7225C0.588773 14.961 0.691839 15.185 0.840707 15.3777C0.989575 15.5704 1.18034 15.7267 1.39856 15.8348C1.61678 15.9429 1.85673 15.9999 2.10023 16.0015C2.48448 15.9673 2.86265 15.8832 3.22523 15.7515C4.05834 15.523 4.84166 15.1415 5.53523 14.6265C5.61646 14.5614 5.67813 14.4751 5.71342 14.3772C5.74871 14.2792 5.75626 14.1735 5.73523 14.0715ZM2.94023 14.7265L2.24023 14.9165C2.14956 14.9407 2.05411 14.9407 1.96346 14.9164C1.87281 14.892 1.79015 14.8443 1.72379 14.7779C1.65742 14.7116 1.60968 14.6289 1.58536 14.5383C1.56104 14.4476 1.561 14.3522 1.58523 14.2615L1.77523 13.5615C1.9315 12.9747 2.17595 12.415 2.50023 11.9015L2.79523 11.9965C3.19072 12.1257 3.55069 12.3453 3.84663 12.6377C4.14256 12.9302 4.36634 13.2876 4.50023 13.6815C4.53523 13.7865 4.56523 13.8815 4.59523 13.9765C4.08553 14.3103 3.52726 14.5633 2.94023 14.7265Z" fill="#2DC66A"/>
</g>
<defs>
<clipPath id="clip0_1121_90758">
<rect width="16" height="16" fill="white" transform="translate(0.5)"/>
</clipPath>
</defs>
</svg>
