<svg width="46" height="45" viewBox="0 0 46 45" fill="none" xmlns="http://www.w3.org/2000/svg">
<g id="Frame" clip-path="url(#clip0_1121_90607)">
<path id="Vector" d="M26.7344 6V13.3333C26.7344 13.8196 26.9351 14.2859 27.2923 14.6297C27.6495 14.9735 28.134 15.1667 28.6391 15.1667H36.2581" stroke="white" stroke-width="2.5" stroke-linecap="round" stroke-linejoin="round"/>
<path id="Vector_2" d="M32.4479 39H13.4003C12.39 39 11.421 38.6137 10.7066 37.9261C9.99218 37.2384 9.59082 36.3058 9.59082 35.3333V9.66667C9.59082 8.69421 9.99218 7.76158 10.7066 7.07394C11.421 6.38631 12.39 6 13.4003 6H26.7336L36.2574 15.1667V35.3333C36.2574 36.3058 35.856 37.2384 35.1416 37.9261C34.4272 38.6137 33.4582 39 32.4479 39Z" stroke="white" stroke-width="2.5" stroke-linecap="round" stroke-linejoin="round"/>
<path id="Vector_3" d="M19.1152 33.499L28.6389 24.3323C29.1441 23.8461 29.4279 23.1866 29.4279 22.499C29.4279 21.8113 29.1441 21.1519 28.6389 20.6656C28.1338 20.1794 27.4486 19.9063 26.7342 19.9062C26.0198 19.9062 25.3346 20.1794 24.8294 20.6656L15.3057 29.8323V33.499H19.1152Z" stroke="white" stroke-width="2.5" stroke-linecap="round" stroke-linejoin="round"/>
</g>
<defs>
<clipPath id="clip0_1121_90607">
<rect width="45.7141" height="44" fill="white" transform="translate(0.0673828 0.5)"/>
</clipPath>
</defs>
</svg>
