<svg width="19" height="18" viewBox="0 0 19 18" fill="none" xmlns="http://www.w3.org/2000/svg">
<g id="place 1">
<g id="Group">
<path id="Vector" d="M13.1914 5.83594C13.1914 3.79515 11.535 2.10938 9.5 2.10938C7.46765 2.10938 5.80859 3.7928 5.80859 5.83594C5.80859 7.87138 7.46456 9.52734 9.5 9.52734C11.5354 9.52734 13.1914 7.87138 13.1914 5.83594ZM6.86328 5.83594C6.86328 4.36264 8.04611 3.16406 9.5 3.16406C10.9539 3.16406 12.1367 4.36264 12.1367 5.83594C12.1367 7.28982 10.9539 8.47266 9.5 8.47266C8.04611 8.47266 6.86328 7.28982 6.86328 5.83594Z" fill="#1F4B3F"/>
<path id="Vector_2" d="M15.3008 5.83594C15.3008 2.6363 12.7034 0 9.5 0C6.47604 0 3.69922 2.41587 3.69922 5.83594C3.69922 7.9683 5.78701 11.1906 7.02662 12.9612C5.6486 13.2382 3.69922 13.9534 3.69922 15.3633C3.69922 17.3795 7.45464 18 9.5 18C11.5455 18 15.3008 17.3795 15.3008 15.3633C15.3008 13.9533 13.3512 13.2382 11.9734 12.9612C13.2066 11.1997 15.3008 7.97077 15.3008 5.83594ZM4.75391 5.83594C4.75391 2.88271 7.21748 1.05469 9.5 1.05469C12.117 1.05469 14.2461 3.19954 14.2461 5.83594C14.2461 8.0692 11.1256 12.4714 9.49996 14.5246C7.87423 12.4718 4.75391 8.07057 4.75391 5.83594ZM14.2461 15.3633C14.2461 16.2443 11.6635 16.9453 9.5 16.9453C7.3394 16.9453 4.75391 16.2438 4.75391 15.3633C4.75391 14.9436 5.69595 14.2159 7.70984 13.912C8.47899 14.9557 9.05791 15.6562 9.09398 15.6998C9.19414 15.8207 9.34299 15.8906 9.5 15.8906C9.65701 15.8906 9.80586 15.8207 9.90602 15.6998C9.94209 15.6562 10.521 14.9557 11.2902 13.912C13.304 14.2159 14.2461 14.9436 14.2461 15.3633Z" fill="#1F4B3F"/>
</g>
</g>
</svg>
