<svg width="20" height="20" viewBox="0 0 20 20" fill="none" xmlns="http://www.w3.org/2000/svg">
<g id="chat 1" clip-path="url(#clip0_608_3378)">
<path id="Vector" d="M0.675 19.6625C0.497056 19.6625 0.326308 19.5922 0.199899 19.467C0.0734902 19.3418 0.00164762 19.1717 0 18.9937L0 10.3313C0 9.44775 0.35097 8.60043 0.9757 7.9757C1.60043 7.35097 2.44775 7 3.33125 7H10C10.8835 7 11.7308 7.35097 12.3555 7.9757C12.9803 8.60043 13.3312 9.44775 13.3312 10.3313V14.3312C13.3312 15.2148 12.9803 16.0621 12.3555 16.6868C11.7308 17.3115 10.8835 17.6625 10 17.6625H3.55625L1.05625 19.5375C0.944956 19.6172 0.811882 19.6608 0.675 19.6625ZM3.3375 8.3375C2.80707 8.3375 2.29836 8.54821 1.92329 8.92329C1.54821 9.29836 1.3375 9.80707 1.3375 10.3375V17.6625L2.9375 16.4625C3.05323 16.3768 3.19351 16.3308 3.3375 16.3312H10C10.5304 16.3312 11.0391 16.1205 11.4142 15.7455C11.7893 15.3704 12 14.8617 12 14.3312V10.3313C12 9.80082 11.7893 9.29211 11.4142 8.91704C11.0391 8.54196 10.5304 8.33125 10 8.33125L3.3375 8.3375Z" fill="#1F4B3F"/>
<path id="Vector_2" d="M19.3254 12.9922C19.1813 12.9931 19.0409 12.947 18.9254 12.8609L16.4254 10.9859H15.3254C15.2326 10.9949 15.1389 10.9844 15.0503 10.9551C14.9618 10.9257 14.8804 10.8782 14.8113 10.8155C14.7423 10.7528 14.6871 10.6764 14.6493 10.5911C14.6116 10.5058 14.5921 10.4136 14.5921 10.3203C14.5921 10.2271 14.6116 10.1348 14.6493 10.0495C14.6871 9.96426 14.7423 9.88782 14.8113 9.82514C14.8804 9.76245 14.9618 9.7149 15.0503 9.68555C15.1389 9.6562 15.2326 9.64569 15.3254 9.65469H16.6629C16.8069 9.65379 16.9474 9.69987 17.0629 9.78594L18.6629 10.9859V3.66719C18.6629 3.13676 18.4522 2.62805 18.0771 2.25298C17.702 1.87791 17.1933 1.66719 16.6629 1.66719H10.0004C9.46996 1.66719 8.96125 1.87791 8.58618 2.25298C8.2111 2.62805 8.00039 3.13676 8.00039 3.66719V4.99844C8.0094 5.09127 7.99889 5.18496 7.96953 5.27349C7.94018 5.36202 7.89263 5.44343 7.82995 5.51249C7.76726 5.58155 7.69083 5.63673 7.60555 5.6745C7.52027 5.71226 7.42803 5.73177 7.33477 5.73177C7.2415 5.73177 7.14926 5.71226 7.06398 5.6745C6.97871 5.63673 6.90227 5.58155 6.83958 5.51249C6.7769 5.44343 6.72935 5.36202 6.7 5.27349C6.67065 5.18496 6.66013 5.09127 6.66914 4.99844V3.66719C6.66914 2.78369 7.02011 1.93637 7.64484 1.31164C8.26957 0.686913 9.11689 0.335943 10.0004 0.335943H16.6629C17.1009 0.335122 17.5347 0.420681 17.9396 0.587724C18.3445 0.754767 18.7125 1.00001 19.0225 1.30943C19.3325 1.61885 19.5784 1.98636 19.7462 2.39093C19.914 2.79551 20.0004 3.2292 20.0004 3.66719V12.3297C19.9971 12.5065 19.9246 12.675 19.7983 12.7989C19.6721 12.9228 19.5023 12.9922 19.3254 12.9922Z" fill="#1F4B3F"/>
<path id="Vector_3" d="M7.99465 11.682H4.0009C3.90807 11.691 3.81438 11.6805 3.72586 11.6512C3.63733 11.6218 3.55592 11.5743 3.48686 11.5116C3.4178 11.4489 3.36262 11.3725 3.32485 11.2872C3.28709 11.2019 3.26758 11.1097 3.26758 11.0164C3.26758 10.9231 3.28709 10.8309 3.32485 10.7456C3.36262 10.6603 3.4178 10.5839 3.48686 10.5212C3.55592 10.4585 3.63733 10.411 3.72586 10.3816C3.81438 10.3523 3.90807 10.3418 4.0009 10.3508H7.99465C8.08748 10.3418 8.18117 10.3523 8.2697 10.3816C8.35823 10.411 8.43964 10.4585 8.5087 10.5212C8.57776 10.5839 8.63294 10.6603 8.6707 10.7456C8.70847 10.8309 8.72798 10.9231 8.72798 11.0164C8.72798 11.1097 8.70847 11.2019 8.6707 11.2872C8.63294 11.3725 8.57776 11.4489 8.5087 11.5116C8.43964 11.5743 8.35823 11.6218 8.2697 11.6512C8.18117 11.6805 8.08748 11.691 7.99465 11.682Z" fill="#1F4B3F"/>
<path id="Vector_4" d="M6.0009 14.3422H4.0009C3.90807 14.3512 3.81438 14.3407 3.72586 14.3113C3.63733 14.282 3.55592 14.2344 3.48686 14.1717C3.4178 14.1091 3.36262 14.0326 3.32485 13.9473C3.28709 13.8621 3.26758 13.7698 3.26758 13.6766C3.26758 13.5833 3.28709 13.4911 3.32485 13.4058C3.36262 13.3205 3.4178 13.2441 3.48686 13.1814C3.55592 13.1187 3.63733 13.0711 3.72586 13.0418C3.81438 13.0124 3.90807 13.0019 4.0009 13.0109H6.0009C6.09373 13.0019 6.18742 13.0124 6.27595 13.0418C6.36448 13.0711 6.44588 13.1187 6.51495 13.1814C6.58401 13.2441 6.63919 13.3205 6.67695 13.4058C6.71472 13.4911 6.73423 13.5833 6.73423 13.6766C6.73423 13.7698 6.71472 13.8621 6.67695 13.9473C6.63919 14.0326 6.58401 14.1091 6.51495 14.1717C6.44588 14.2344 6.36448 14.282 6.27595 14.3113C6.18742 14.3407 6.09373 14.3512 6.0009 14.3422Z" fill="#1F4B3F"/>
</g>
<defs>
<clipPath id="clip0_608_3378">
<rect width="20" height="20" fill="white"/>
</clipPath>
</defs>
</svg>
