<svg width="17" height="16" viewBox="0 0 17 16" fill="none" xmlns="http://www.w3.org/2000/svg">
<g id="delete 1" clip-path="url(#clip0_1121_90753)">
<path id="Vector" d="M14.9003 2.135H11.0503L10.8203 1.215C10.7343 0.867805 10.5343 0.559463 10.2525 0.339225C9.97058 0.118986 9.62304 -0.000446193 9.26533 3.3199e-06H7.73533C7.37829 -0.000723749 7.03127 0.117991 6.74949 0.337255C6.46771 0.556519 6.26736 0.863732 6.18033 1.21L5.95033 2.135H2.10033C2.02607 2.1278 1.95112 2.13621 1.88029 2.15969C1.80947 2.18317 1.74435 2.22121 1.6891 2.27136C1.63385 2.32151 1.5897 2.38265 1.55949 2.45088C1.52928 2.5191 1.51367 2.59289 1.51367 2.6675C1.51367 2.74212 1.52928 2.81591 1.55949 2.88413C1.5897 2.95235 1.63385 3.0135 1.6891 3.06365C1.74435 3.1138 1.80947 3.15183 1.88029 3.17532C1.95112 3.1988 2.02607 3.20721 2.10033 3.2H14.9003C14.9746 3.20721 15.0495 3.1988 15.1204 3.17532C15.1912 3.15183 15.2563 3.1138 15.3116 3.06365C15.3668 3.0135 15.411 2.95235 15.4412 2.88413C15.4714 2.81591 15.487 2.74212 15.487 2.6675C15.487 2.59289 15.4714 2.5191 15.4412 2.45088C15.411 2.38265 15.3668 2.32151 15.3116 2.27136C15.2563 2.22121 15.1912 2.18317 15.1204 2.15969C15.0495 2.13621 14.9746 2.1278 14.9003 2.135ZM7.05033 2.135L7.21533 1.47C7.24346 1.3574 7.30745 1.25699 7.39764 1.18393C7.48783 1.11088 7.59934 1.06914 7.71533 1.065H9.25033C9.36633 1.06914 9.47783 1.11088 9.56802 1.18393C9.65821 1.25699 9.7222 1.3574 9.75033 1.47L9.91533 2.135H7.05033Z" fill="#E02424"/>
<path id="Vector_2" d="M13.8356 4.26562H3.16565C3.09093 4.26593 3.01711 4.28188 2.94894 4.31244C2.88076 4.34301 2.81974 4.38752 2.76982 4.4431C2.71989 4.49868 2.68215 4.5641 2.65904 4.63515C2.63594 4.7062 2.62797 4.78131 2.63565 4.85563L3.50065 13.6006C3.56549 14.261 3.87479 14.8733 4.36786 15.3173C4.86092 15.7613 5.50213 16.005 6.16565 16.0006H10.8356C11.4992 16.005 12.1404 15.7613 12.6334 15.3173C13.1265 14.8733 13.4358 14.261 13.5006 13.6006L14.3656 4.85563C14.3726 4.7817 14.3641 4.70714 14.3406 4.63669C14.3172 4.56624 14.2793 4.50144 14.2295 4.44641C14.1796 4.39139 14.1189 4.34734 14.0511 4.31708C13.9833 4.28681 13.9099 4.27099 13.8356 4.27063V4.26562ZM12.4306 13.5006C12.3921 13.8954 12.2079 14.2616 11.9139 14.5278C11.6199 14.7941 11.2373 14.9413 10.8406 14.9406H6.16565C5.76816 14.9425 5.3843 14.7959 5.08926 14.5295C4.79422 14.2632 4.60927 13.8962 4.57065 13.5006L3.75565 5.33563H13.2556L12.4306 13.5006Z" fill="#E02424"/>
</g>
<defs>
<clipPath id="clip0_1121_90753">
<rect width="16" height="16" fill="white" transform="translate(0.5)"/>
</clipPath>
</defs>
</svg>
