<svg width="20" height="20" viewBox="0 0 20 20" fill="none" xmlns="http://www.w3.org/2000/svg">
<g id="document 2">
<path id="Vector" d="M16.8882 4.59271C16.7238 4.42704 16.5282 4.29559 16.3127 4.20596C16.0972 4.11632 15.866 4.07028 15.6326 4.07049H15.0382V2.88715C15.0382 2.41566 14.8509 1.96347 14.5175 1.63007C14.1841 1.29668 13.7319 1.10938 13.2604 1.10938H4.37153C3.90003 1.10938 3.44785 1.29668 3.11445 1.63007C2.78105 1.96347 2.59375 2.41566 2.59375 2.88715V14.7372C2.59375 15.2086 2.78105 15.6608 3.11445 15.9942C3.44785 16.3276 3.90003 16.5149 4.37153 16.5149H5.55486V17.1094C5.55486 17.5809 5.74216 18.0331 6.07556 18.3665C6.40896 18.6999 6.86114 18.8872 7.33264 18.8872H15.6271C16.0986 18.8872 16.5508 18.6999 16.8842 18.3665C17.2176 18.0331 17.4049 17.5809 17.4049 17.1094V5.84826C17.4058 5.61525 17.3606 5.38436 17.272 5.16887C17.1833 4.95339 17.0529 4.75758 16.8882 4.59271ZM4.37153 15.3316C4.21387 15.3316 4.06267 15.269 3.95119 15.1575C3.83971 15.046 3.77708 14.8948 3.77708 14.7372V2.88715C3.77708 2.7295 3.83971 2.5783 3.95119 2.46682C4.06267 2.35534 4.21387 2.29271 4.37153 2.29271H13.2604C13.4171 2.29417 13.5669 2.35745 13.6772 2.46877C13.7874 2.58009 13.8493 2.73045 13.8493 2.88715V4.07049H7.33264C6.86114 4.07049 6.40896 4.25779 6.07556 4.59119C5.74216 4.92458 5.55486 5.37677 5.55486 5.84826V15.3316H4.37153ZM16.2215 17.1094C16.2215 17.267 16.1589 17.4182 16.0474 17.5297C15.9359 17.6412 15.7847 17.7038 15.6271 17.7038H7.33264C7.17498 17.7038 7.02378 17.6412 6.9123 17.5297C6.80082 17.4182 6.73819 17.267 6.73819 17.1094V5.84826C6.73966 5.69157 6.80293 5.5418 6.91426 5.43152C7.02558 5.32123 7.17594 5.25937 7.33264 5.25938H15.6271C15.7847 5.25938 15.9359 5.322 16.0474 5.43348C16.1589 5.54496 16.2215 5.69616 16.2215 5.85382V17.1094Z" fill="#1F4B3F"/>
<path id="Vector_2" d="M8.51758 7.92969H14.4454V9.11302H8.51758V7.92969Z" fill="#1F4B3F"/>
<path id="Vector_3" d="M8.51758 10.8906H14.4454V12.074H8.51758V10.8906Z" fill="#1F4B3F"/>
<path id="Vector_4" d="M8.51758 13.8516H14.4454V15.0349H8.51758V13.8516Z" fill="#1F4B3F"/>
</g>
</svg>
