<svg width="20" height="21" viewBox="0 0 20 21" fill="none" xmlns="http://www.w3.org/2000/svg">
<g id="dollar 1" clip-path="url(#clip0_608_3388)">
<path id="Vector" d="M19.025 1.47501C18.7161 1.16489 18.3489 0.919045 17.9445 0.751694C17.54 0.584343 17.1064 0.498802 16.6688 0.500013H3.33125C2.44775 0.500013 1.60043 0.850983 0.975701 1.47571C0.35097 2.10044 0 2.94776 0 3.83126L0 17.1688C0 18.0523 0.35097 18.8996 0.975701 19.5243C1.60043 20.149 2.44775 20.5 3.33125 20.5H16.6688C17.5523 20.5 18.3996 20.149 19.0243 19.5243C19.649 18.8996 20 18.0523 20 17.1688V3.83126C20.0012 3.39358 19.9157 2.95999 19.7483 2.55556C19.581 2.15113 19.3351 1.78387 19.025 1.47501ZM18.6688 17.1625C18.6688 17.6929 18.458 18.2017 18.083 18.5767C17.7079 18.9518 17.1992 19.1625 16.6688 19.1625H3.33125C2.80082 19.1625 2.29211 18.9518 1.91704 18.5767C1.54196 18.2017 1.33125 17.6929 1.33125 17.1625V3.83126C1.33125 3.30083 1.54196 2.79212 1.91704 2.41705C2.29211 2.04198 2.80082 1.83126 3.33125 1.83126H16.6688C17.1992 1.83126 17.7079 2.04198 18.083 2.41705C18.458 2.79212 18.6688 3.30083 18.6688 3.83126V17.1625Z" fill="#1F4B3F"/>
<path id="Vector_2" d="M6.66887 3.44453H4.66887C4.57604 3.43553 4.48235 3.44604 4.39383 3.47539C4.3053 3.50474 4.22389 3.55229 4.15483 3.61497C4.08577 3.67766 4.03058 3.7541 3.99282 3.83937C3.95506 3.92465 3.93555 4.01689 3.93555 4.11016C3.93555 4.20342 3.95506 4.29566 3.99282 4.38094C4.03058 4.46622 4.08577 4.54265 4.15483 4.60534C4.22389 4.66802 4.3053 4.71557 4.39383 4.74492C4.48235 4.77428 4.57604 4.78479 4.66887 4.77578H6.66887C6.83428 4.75973 6.98779 4.68268 7.09948 4.55962C7.21117 4.43657 7.27305 4.27634 7.27305 4.11016C7.27305 3.94397 7.21117 3.78374 7.09948 3.66069C6.98779 3.53764 6.83428 3.46058 6.66887 3.44453Z" fill="#1F4B3F"/>
<path id="Vector_3" d="M10.4991 11.1698H9.49905C9.27776 11.1698 9.06554 11.0819 8.90906 10.9254C8.75258 10.7689 8.66468 10.5567 8.66468 10.3354C8.66468 10.1141 8.75258 9.90191 8.90906 9.74543C9.06554 9.58896 9.27776 9.50105 9.49905 9.50105H11.1303C11.2957 9.485 11.4492 9.40794 11.5609 9.28489C11.6726 9.16184 11.7345 9.00161 11.7345 8.83542C11.7345 8.66924 11.6726 8.50901 11.5609 8.38596C11.4492 8.26291 11.2957 8.18585 11.1303 8.1698H10.6616V7.83855C10.6455 7.67314 10.5684 7.51964 10.4454 7.40794C10.3223 7.29625 10.1621 7.23438 9.99593 7.23438C9.82974 7.23438 9.66951 7.29625 9.54646 7.40794C9.42341 7.51964 9.34635 7.67314 9.3303 7.83855V8.18855C8.77222 8.23106 8.25236 8.48828 7.88001 8.90615C7.50766 9.32401 7.31183 9.86997 7.33368 10.4292C7.35553 10.9885 7.59337 11.5175 7.99719 11.9051C8.40101 12.2926 8.93936 12.5085 9.49905 12.5073H10.4991C10.7203 12.5073 10.9326 12.5952 11.089 12.7517C11.2455 12.9082 11.3334 13.1204 11.3334 13.3417C11.3334 13.563 11.2455 13.7752 11.089 13.9317C10.9326 14.0881 10.7203 14.176 10.4991 14.176H8.8678C8.70239 14.1921 8.54889 14.2692 8.43719 14.3922C8.3255 14.5153 8.26363 14.6755 8.26363 14.8417C8.26363 15.0079 8.3255 15.1681 8.43719 15.2911C8.54889 15.4142 8.70239 15.4913 8.8678 15.5073H9.33655V15.8386C9.3526 16.004 9.42966 16.1575 9.55271 16.2692C9.67576 16.3808 9.83599 16.4427 10.0022 16.4427C10.1684 16.4427 10.3286 16.3808 10.4516 16.2692C10.5747 16.1575 10.6518 16.004 10.6678 15.8386V15.501C11.2259 15.4585 11.7457 15.2013 12.1181 14.7835C12.4904 14.3656 12.6863 13.8196 12.6644 13.2604C12.6426 12.7011 12.4047 12.1721 12.0009 11.7845C11.5971 11.397 11.0587 11.1811 10.4991 11.1823V11.1698Z" fill="#1F4B3F"/>
</g>
<defs>
<clipPath id="clip0_608_3388">
<rect width="20" height="20" fill="white" transform="translate(0 0.5)"/>
</clipPath>
</defs>
</svg>
