<svg width="21" height="20" viewBox="0 0 21 20" fill="none" xmlns="http://www.w3.org/2000/svg">
<g clip-path="url(#clip0_608_3442)">
<path d="M9.86488 18.9813C9.98068 19.1013 10.1384 19.168 10.3034 19.168C10.4685 19.168 10.6262 19.1013 10.742 18.9813L18.6214 10.8805C20.6672 8.77797 20.6672 5.35547 18.6214 3.25214C17.6276 2.23047 16.3062 1.66797 14.8993 1.66797C13.4925 1.66797 12.1719 2.23047 11.1781 3.2513L10.3034 4.1513L9.42878 3.25214C8.43503 2.23047 7.11359 1.66797 5.70756 1.66797C4.30071 1.66797 2.97927 2.23047 1.98553 3.25214C-0.0602798 5.35547 -0.0602798 8.77797 1.98553 10.8796L9.86488 18.9813ZM2.86183 4.12964C3.62234 3.3488 4.63333 2.91797 5.70674 2.91797C6.78098 2.91797 7.79115 3.3488 8.55083 4.13047L9.86406 5.48047C10.0948 5.71797 10.5096 5.71797 10.7404 5.48047L12.0536 4.12964C12.8157 3.3488 13.8259 2.91797 14.8993 2.91797C15.9736 2.91797 16.9837 3.3488 17.7442 4.12964C19.3186 5.7488 19.3186 8.38297 17.7442 10.003L10.3034 17.6538L2.86183 10.0021C1.28744 8.3838 1.28744 5.7488 2.86183 4.12964Z" fill="white"/>
</g>
<defs>
<clipPath id="clip0_608_3442">
<rect width="19.7107" height="20" fill="white" transform="translate(0.447266)"/>
</clipPath>
</defs>
</svg>
