<svg width="157" height="40" viewBox="0 0 157 40" fill="none" xmlns="http://www.w3.org/2000/svg">
<path d="M56.294 27.4648V13.1368H51.398V10.6648H64.286V13.1368H59.366V27.4648H56.294ZM69.8628 27.7528C68.8068 27.7528 67.8788 27.5848 67.0788 27.2488C66.2788 26.8968 65.6388 26.4168 65.1588 25.8088C64.6788 25.2008 64.3908 24.4968 64.2948 23.6968H67.3908C67.4868 24.1608 67.7428 24.5608 68.1588 24.8968C68.5908 25.2168 69.1428 25.3768 69.8148 25.3768C70.4868 25.3768 70.9748 25.2408 71.2788 24.9688C71.5988 24.6968 71.7588 24.3848 71.7588 24.0328C71.7588 23.5208 71.5348 23.1768 71.0868 23.0008C70.6388 22.8088 70.0148 22.6248 69.2148 22.4488C68.7028 22.3368 68.1828 22.2008 67.6548 22.0408C67.1268 21.8808 66.6388 21.6808 66.1908 21.4408C65.7588 21.1848 65.4068 20.8648 65.1348 20.4808C64.8628 20.0808 64.7268 19.5928 64.7268 19.0168C64.7268 17.9608 65.1428 17.0728 65.9748 16.3528C66.8228 15.6328 68.0068 15.2728 69.5268 15.2728C70.9348 15.2728 72.0548 15.6008 72.8868 16.2568C73.7348 16.9128 74.2388 17.8168 74.3988 18.9688H71.4948C71.3188 18.0888 70.6548 17.6488 69.5028 17.6488C68.9268 17.6488 68.4788 17.7608 68.1588 17.9848C67.8548 18.2088 67.7028 18.4888 67.7028 18.8248C67.7028 19.1768 67.9348 19.4568 68.3988 19.6648C68.8628 19.8728 69.4788 20.0648 70.2468 20.2408C71.0788 20.4328 71.8388 20.6488 72.5268 20.8888C73.2308 21.1128 73.7908 21.4568 74.2068 21.9208C74.6228 22.3688 74.8308 23.0168 74.8308 23.8648C74.8468 24.6008 74.6548 25.2648 74.2548 25.8568C73.8548 26.4488 73.2788 26.9128 72.5268 27.2488C71.7748 27.5848 70.8868 27.7528 69.8628 27.7528ZM77.5522 27.4648V10.1848H80.6242V20.3848L84.8482 15.5608H88.4962L83.6242 20.9848L89.2882 27.4648H85.4482L80.6242 21.4888V27.4648H77.5522ZM91.1928 27.4648V15.5608H93.9288L94.2168 17.7928C94.6488 17.0248 95.2328 16.4168 95.9688 15.9688C96.7208 15.5048 97.6008 15.2728 98.6088 15.2728V18.5128H97.7448C97.0728 18.5128 96.4728 18.6168 95.9448 18.8248C95.4168 19.0328 95.0008 19.3928 94.6968 19.9048C94.4088 20.4168 94.2648 21.1288 94.2648 22.0408V27.4648H91.1928Z" fill="white"/>
<path d="M102.028 27.6328C101.468 27.6328 101.004 27.4568 100.636 27.1048C100.284 26.7528 100.108 26.3288 100.108 25.8328C100.108 25.3208 100.284 24.8888 100.636 24.5368C101.004 24.1848 101.468 24.0088 102.028 24.0088C102.588 24.0088 103.044 24.1848 103.396 24.5368C103.764 24.8888 103.948 25.3208 103.948 25.8328C103.948 26.3288 103.764 26.7528 103.396 27.1048C103.044 27.4568 102.588 27.6328 102.028 27.6328ZM112.306 27.7528C111.09 27.7528 110.018 27.4888 109.09 26.9608C108.162 26.4328 107.426 25.6968 106.882 24.7528C106.354 23.8088 106.09 22.7288 106.09 21.5128C106.09 20.2968 106.354 19.2168 106.882 18.2728C107.426 17.3288 108.162 16.5928 109.09 16.0648C110.018 15.5368 111.09 15.2728 112.306 15.2728C113.826 15.2728 115.106 15.6728 116.146 16.4728C117.186 17.2568 117.85 18.3448 118.138 19.7368H114.898C114.738 19.1608 114.418 18.7128 113.938 18.3928C113.474 18.0568 112.922 17.8888 112.282 17.8888C111.434 17.8888 110.714 18.2088 110.122 18.8488C109.53 19.4888 109.234 20.3768 109.234 21.5128C109.234 22.6488 109.53 23.5368 110.122 24.1768C110.714 24.8168 111.434 25.1368 112.282 25.1368C112.922 25.1368 113.474 24.9768 113.938 24.6568C114.418 24.3368 114.738 23.8808 114.898 23.2888H118.138C117.85 24.6328 117.186 25.7128 116.146 26.5288C115.106 27.3448 113.826 27.7528 112.306 27.7528ZM126.577 27.7528C125.425 27.7528 124.385 27.4888 123.457 26.9608C122.545 26.4328 121.817 25.7048 121.273 24.7768C120.745 23.8328 120.481 22.7448 120.481 21.5128C120.481 20.2808 120.753 19.2008 121.297 18.2728C121.841 17.3288 122.569 16.5928 123.481 16.0648C124.409 15.5368 125.449 15.2728 126.601 15.2728C127.737 15.2728 128.761 15.5368 129.673 16.0648C130.601 16.5928 131.329 17.3288 131.857 18.2728C132.401 19.2008 132.673 20.2808 132.673 21.5128C132.673 22.7448 132.401 23.8328 131.857 24.7768C131.329 25.7048 130.601 26.4328 129.673 26.9608C128.745 27.4888 127.713 27.7528 126.577 27.7528ZM126.577 25.0888C127.377 25.0888 128.073 24.7928 128.665 24.2008C129.257 23.5928 129.553 22.6968 129.553 21.5128C129.553 20.3288 129.257 19.4408 128.665 18.8488C128.073 18.2408 127.385 17.9368 126.601 17.9368C125.785 17.9368 125.081 18.2408 124.489 18.8488C123.913 19.4408 123.625 20.3288 123.625 21.5128C123.625 22.6968 123.913 23.5928 124.489 24.2008C125.081 24.7928 125.777 25.0888 126.577 25.0888ZM135.419 27.4648V15.5608H138.131L138.395 17.1688C138.779 16.5928 139.283 16.1368 139.907 15.8008C140.547 15.4488 141.283 15.2728 142.115 15.2728C143.955 15.2728 145.259 15.9848 146.027 17.4088C146.459 16.7528 147.035 16.2328 147.755 15.8488C148.491 15.4648 149.291 15.2728 150.155 15.2728C151.707 15.2728 152.899 15.7368 153.731 16.6648C154.563 17.5928 154.979 18.9528 154.979 20.7448V27.4648H151.907V21.0328C151.907 20.0088 151.707 19.2248 151.307 18.6808C150.923 18.1368 150.323 17.8648 149.507 17.8648C148.675 17.8648 148.003 18.1688 147.491 18.7768C146.995 19.3848 146.747 20.2328 146.747 21.3208V27.4648H143.675V21.0328C143.675 20.0088 143.475 19.2248 143.075 18.6808C142.675 18.1368 142.059 17.8648 141.227 17.8648C140.411 17.8648 139.747 18.1688 139.235 18.7768C138.739 19.3848 138.491 20.2328 138.491 21.3208V27.4648H135.419Z" fill="#5BBB7B"/>
<path fill-rule="evenodd" clip-rule="evenodd" d="M0 15C0 6.71573 6.71573 0 15 0H25C33.2843 0 40 6.71573 40 15V25C40 33.2843 33.2843 40 25 40H15C6.71573 40 0 33.2843 0 25V15ZM23.6368 31.5073C22.3526 31.5073 21.311 31.1071 20.5119 30.3066C19.7129 29.5061 19.3141 28.4369 19.3158 27.0989V8.59636H24.2647V14.6574H29.3707V18.7513H24.2647V26.2402C24.2647 26.9917 24.6403 26.9907 25.2761 26.9892L25.3662 26.989H29.3707V31.5098L23.6368 31.5073ZM10.6143 13.8165H16.6086V19.8107H10.6143V13.8165Z" fill="white"/>
</svg>
