<svg width="40" height="40" viewBox="0 0 40 40" fill="none" xmlns="http://www.w3.org/2000/svg">
<g id="Group 1">
<g id="&#240;&#159;&#166;&#134; icon &#34;users&#34;">
<path id="Subtract" fill-rule="evenodd" clip-rule="evenodd" d="M0 15C0 6.71573 6.71573 0 15 0H25C33.2843 0 40 6.71573 40 15V25C40 33.2843 33.2843 40 25 40H15C6.71573 40 0 33.2843 0 25V15ZM23.6368 31.5073C22.3526 31.5073 21.311 31.1071 20.5119 30.3066C19.7129 29.5061 19.3141 28.4369 19.3158 27.0989V8.59636H24.2647V14.6574H29.3707V18.7513H24.2647V26.2402C24.2647 26.9917 24.6403 26.9907 25.2761 26.9892L25.3662 26.989H29.3707V31.5098L23.6368 31.5073ZM10.6143 13.8165H16.6086V19.8107H10.6143V13.8165Z" fill="white"/>
</g>
</g>
</svg>
