<svg width="20" height="20" viewBox="0 0 20 20" fill="none" xmlns="http://www.w3.org/2000/svg">
<g id="logout 1">
<path id="Vector" d="M18.0008 13.3313C17.8234 13.3313 17.6533 13.4017 17.5279 13.5271C17.4025 13.6525 17.332 13.8226 17.332 14C17.3304 15.2377 16.838 16.4243 15.9628 17.2995C15.0876 18.1747 13.901 18.6671 12.6633 18.6688H7.33203C6.09539 18.6654 4.91044 18.1723 4.03659 17.2973C3.16274 16.4223 2.67118 15.2366 2.66953 14V6C2.67118 4.76228 3.1636 3.57572 4.0388 2.70052C4.91401 1.82532 6.10056 1.3329 7.33828 1.33125H12.6695C13.9062 1.33456 15.0911 1.8277 15.965 2.70272C16.8388 3.57775 17.3304 4.76336 17.332 6C17.323 6.09283 17.3335 6.18652 17.3629 6.27505C17.3922 6.36357 17.4398 6.44498 17.5025 6.51404C17.5652 6.5831 17.6416 6.63829 17.7269 6.67605C17.8122 6.71382 17.9044 6.73333 17.9977 6.73333C18.0909 6.73333 18.1832 6.71382 18.2684 6.67605C18.3537 6.63829 18.4302 6.5831 18.4928 6.51404C18.5555 6.44498 18.6031 6.36357 18.6324 6.27505C18.6618 6.18652 18.6723 6.09283 18.6633 6C18.6616 4.41029 18.0298 2.88607 16.9063 1.76139C15.7828 0.63671 14.2592 0.00330759 12.6695 0L7.33203 0C5.74124 0.00165449 4.21608 0.634327 3.09122 1.75919C1.96636 2.88405 1.33369 4.40921 1.33203 6V14C1.33369 15.5908 1.96636 17.116 3.09122 18.2408C4.21608 19.3657 5.74124 19.9983 7.33203 20H12.6633C14.2541 19.9983 15.7792 19.3657 16.9041 18.2408C18.029 17.116 18.6616 15.5908 18.6633 14C18.6633 13.8237 18.5937 13.6546 18.4696 13.5293C18.3456 13.4041 18.1771 13.3329 18.0008 13.3313Z" fill="#1F4B3F"/>
<path id="Vector_2" d="M17.9992 9.33097H10.2742L11.8054 7.79972C11.8981 7.66997 11.9414 7.51135 11.9275 7.35249C11.9135 7.19362 11.8433 7.04497 11.7294 6.93334C11.6155 6.82171 11.4655 6.75446 11.3064 6.74371C11.1473 6.73296 10.9895 6.77943 10.8617 6.87472L8.19292 9.54347C8.06812 9.66881 7.99805 9.83847 7.99805 10.0153C7.99805 10.1922 8.06812 10.3619 8.19292 10.4872L10.8617 13.1247C10.9893 13.2367 11.1548 13.296 11.3245 13.2905C11.4943 13.2849 11.6556 13.215 11.7756 13.0949C11.8957 12.9749 11.9656 12.8136 11.9712 12.6438C11.9767 12.4741 11.9174 12.3086 11.8054 12.181L10.2742 10.6497H17.9992C18.1646 10.6337 18.3181 10.5566 18.4298 10.4336C18.5415 10.3105 18.6033 10.1503 18.6033 9.9841C18.6033 9.81791 18.5415 9.65768 18.4298 9.53463C18.3181 9.41158 18.1646 9.33452 17.9992 9.31847V9.33097Z" fill="#1F4B3F"/>
</g>
</svg>
