<svg width="20" height="20" viewBox="0 0 20 20" fill="none" xmlns="http://www.w3.org/2000/svg">
<g clip-path="url(#clip0_608_3444)">
<path d="M16.4109 5.83906L10.028 11.5462L3.64367 5.83898C3.38946 5.61173 3.00196 5.6367 2.77809 5.89448C2.55429 6.15234 2.57866 6.54552 2.83287 6.77276L9.62267 12.8425C9.73853 12.9461 9.88334 12.9978 10.0281 12.9978C10.1728 12.9978 10.3177 12.9461 10.4335 12.8424L17.222 6.77268C17.476 6.54552 17.5005 6.15226 17.2766 5.8944C17.0525 5.63679 16.6651 5.6119 16.4109 5.83906Z" fill="white"/>
<path d="M18.0428 3.19531H2.01162C0.997225 3.19531 0.171875 4.03269 0.171875 5.06206V14.9352C0.171875 15.9646 0.997225 16.802 2.01162 16.802H18.0428C19.0572 16.802 19.8826 15.9646 19.8826 14.9352V5.06206C19.8826 4.03278 19.0572 3.19531 18.0428 3.19531ZM18.6561 14.9352C18.6561 15.2783 18.381 15.5575 18.0428 15.5575H2.01162C1.67343 15.5575 1.39837 15.2783 1.39837 14.9352V5.06206C1.39837 4.71899 1.67343 4.43981 2.01162 4.43981H18.0428C18.381 4.43981 18.6561 4.71899 18.6561 5.06206V14.9352Z" fill="white"/>
</g>
<defs>
<clipPath id="clip0_608_3444">
<rect width="19.7107" height="20" fill="white" transform="translate(0.171875)"/>
</clipPath>
</defs>
</svg>
