<svg width="21" height="20" viewBox="0 0 21 20" fill="none" xmlns="http://www.w3.org/2000/svg">
<path d="M16.717 10.268V8.39844C16.717 5.67102 14.9303 3.35934 12.4822 2.6043V1.75781C12.4822 0.788555 11.7051 0 10.7499 0C9.79462 0 9.01748 0.788555 9.01748 1.75781V2.6043C6.56942 3.35934 4.78276 5.67098 4.78276 8.39844V10.268C4.78276 12.6638 3.88276 14.9355 2.24859 16.6648C2.08844 16.8342 2.04343 17.0843 2.13421 17.3002C2.22499 17.5161 2.43403 17.6562 2.6654 17.6562H7.92065C8.1889 18.9919 9.35552 20 10.7499 20C12.1442 20 13.3108 18.9919 13.5791 17.6562H18.8343C19.0657 17.6562 19.2747 17.5161 19.3655 17.3002C19.4562 17.0843 19.4112 16.8342 19.2511 16.6648C17.617 14.9355 16.717 12.6638 16.717 10.268ZM10.1724 1.75781C10.1724 1.43473 10.4314 1.17188 10.7499 1.17188C11.0683 1.17188 11.3273 1.43473 11.3273 1.75781V2.37219C11.1373 2.35359 10.9447 2.34375 10.7499 2.34375C10.5551 2.34375 10.3625 2.35359 10.1724 2.37219V1.75781ZM10.7499 18.8281C9.99704 18.8281 9.35518 18.3382 9.1168 17.6562H12.3829C12.1445 18.3382 11.5027 18.8281 10.7499 18.8281ZM3.91002 16.4844C5.22513 14.6956 5.93768 12.5309 5.93768 10.268V8.39844C5.93768 5.70605 8.09642 3.51562 10.7499 3.51562C13.4033 3.51562 15.562 5.70605 15.562 8.39844V10.268C15.562 12.5309 16.2746 14.6956 17.5897 16.4844H3.91002Z" fill="white"/>
<path d="M18.2566 8.39817C18.2566 8.72176 18.5151 8.98411 18.834 8.98411C19.1529 8.98411 19.4115 8.72176 19.4115 8.39817C19.4115 6.05051 18.5105 3.84336 16.8745 2.18333C16.649 1.95454 16.2833 1.9545 16.0578 2.18333C15.8323 2.41215 15.8323 2.78313 16.0578 3.01196C17.4757 4.45067 18.2566 6.36352 18.2566 8.39817Z" fill="white"/>
<path d="M2.66535 8.98408C2.98427 8.98408 3.24281 8.72174 3.24281 8.39814C3.24281 6.36353 4.0237 4.45068 5.44156 3.01197C5.66707 2.78314 5.66707 2.41217 5.44156 2.18334C5.21608 1.95451 4.85043 1.95451 4.62491 2.18334C2.98888 3.84338 2.08789 6.05049 2.08789 8.39814C2.08789 8.72174 2.34644 8.98408 2.66535 8.98408Z" fill="white"/>
</svg>
