<svg width="20" height="20" viewBox="0 0 20 20" fill="none" xmlns="http://www.w3.org/2000/svg">
<g id="photo 1" clip-path="url(#clip0_683_2024)">
<path id="Vector" d="M14 20H6C4.40921 19.9983 2.88405 19.3657 1.75919 18.2408C0.634327 17.116 0.00165449 15.5908 0 14V6C0.00165449 4.40921 0.634327 2.88405 1.75919 1.75919C2.88405 0.634327 4.40921 0.00165449 6 0L14 0C15.5908 0.00165449 17.116 0.634327 18.2408 1.75919C19.3657 2.88405 19.9983 4.40921 20 6V14C19.9983 15.5908 19.3657 17.116 18.2408 18.2408C17.116 19.3657 15.5908 19.9983 14 20ZM6 1.33125C4.76228 1.3329 3.57572 1.82532 2.70052 2.70052C1.82532 3.57572 1.3329 4.76228 1.33125 6V14C1.3329 15.2377 1.82532 16.4243 2.70052 17.2995C3.57572 18.1747 4.76228 18.6671 6 18.6688H14C15.2377 18.6671 16.4243 18.1747 17.2995 17.2995C18.1747 16.4243 18.6671 15.2377 18.6688 14V6C18.6671 4.76228 18.1747 3.57572 17.2995 2.70052C16.4243 1.82532 15.2377 1.3329 14 1.33125H6Z" fill="#1F4B3F"/>
<path id="Vector_2" d="M10 11.332C9.20888 11.332 8.43552 11.0974 7.77772 10.6579C7.11992 10.2184 6.60723 9.59367 6.30448 8.86277C6.00173 8.13186 5.92252 7.3276 6.07686 6.55167C6.2312 5.77575 6.61217 5.06302 7.17158 4.50361C7.73099 3.9442 8.44372 3.56323 9.21964 3.40889C9.99556 3.25455 10.7998 3.33376 11.5307 3.63651C12.2616 3.93927 12.8864 4.45196 13.3259 5.10975C13.7654 5.76755 14 6.54091 14 7.33203C13.9983 8.39239 13.5764 9.40885 12.8266 10.1586C12.0768 10.9084 11.0604 11.3304 10 11.332ZM10 4.66953C9.47217 4.66953 8.9562 4.82605 8.51732 5.1193C8.07845 5.41254 7.73639 5.82935 7.5344 6.317C7.33241 6.80465 7.27956 7.34124 7.38253 7.85893C7.48551 8.37662 7.73968 8.85214 8.11291 9.22537C8.48614 9.59861 8.96167 9.85278 9.47935 9.95575C9.99704 10.0587 10.5336 10.0059 11.0213 9.80389C11.5089 9.60189 11.9257 9.25983 12.219 8.82096C12.5122 8.38209 12.6688 7.86611 12.6688 7.33828C12.6688 6.63049 12.3876 5.95168 11.8871 5.45119C11.3866 4.9507 10.7078 4.66953 10 4.66953Z" fill="#1F4B3F"/>
<path id="Vector_3" d="M14.6758 15.4117C14.5091 15.4121 14.3484 15.3496 14.2258 15.2367C13.3669 14.4362 12.2373 13.9898 11.0633 13.9867H8.94451C7.77045 13.9898 6.64088 14.4362 5.782 15.2367C5.71805 15.3006 5.6418 15.3509 5.55788 15.3845C5.47395 15.4181 5.38409 15.4343 5.29371 15.4322C5.20334 15.43 5.11433 15.4096 5.03207 15.3721C4.94981 15.3347 4.876 15.2809 4.81511 15.2141C4.75421 15.1473 4.7075 15.0688 4.67778 14.9834C4.64807 14.898 4.63597 14.8075 4.64223 14.7173C4.64848 14.6272 4.67295 14.5392 4.71416 14.4587C4.75538 14.3783 4.81247 14.307 4.882 14.2492C5.98936 13.2304 7.43975 12.6658 8.94451 12.668H11.057C12.5656 12.6677 14.0187 13.2369 15.1258 14.2617C15.223 14.353 15.2907 14.4713 15.3202 14.6014C15.3497 14.7316 15.3396 14.8675 15.2912 14.9918C15.2428 15.1161 15.1584 15.2231 15.0487 15.2991C14.939 15.375 14.8091 15.4164 14.6758 15.418V15.4117Z" fill="#1F4B3F"/>
</g>
<defs>
<clipPath id="clip0_683_2024">
<rect width="20" height="20" fill="white"/>
</clipPath>
</defs>
</svg>
